<mxfile host="app.diagrams.net" modified="2023-09-14T23:13:31.744Z" agent="Mozilla/5.0 (Windows NT 10.0; Win64; x64) AppleWebKit/537.36 (KHTML, like Gecko) Chrome/116.0.0.0 Safari/537.36" etag="TrsJmofDQyuz482b8rhP" version="21.7.5" type="google">
  <diagram name="PÃ¡gina-1" id="L3liJtpW6PcwMaplLBpA">
    <mxGraphModel grid="1" page="1" gridSize="10" guides="1" tooltips="1" connect="1" arrows="1" fold="1" pageScale="1" pageWidth="827" pageHeight="1169" math="0" shadow="0">
      <root>
        <mxCell id="0" />
        <mxCell id="1" parent="0" />
        <mxCell id="XcWfCShOmDu8Nu97XLVq-1" value="Pessoa" style="swimlane;fontStyle=1;align=center;verticalAlign=top;childLayout=stackLayout;horizontal=1;startSize=26;horizontalStack=0;resizeParent=1;resizeParentMax=0;resizeLast=0;collapsible=1;marginBottom=0;whiteSpace=wrap;html=1;" vertex="1" parent="1">
          <mxGeometry x="50" y="-1540" width="160" height="112" as="geometry" />
        </mxCell>
        <mxCell id="XcWfCShOmDu8Nu97XLVq-2" value="- nome: String" style="text;strokeColor=none;fillColor=none;align=left;verticalAlign=top;spacingLeft=4;spacingRight=4;overflow=hidden;rotatable=0;points=[[0,0.5],[1,0.5]];portConstraint=eastwest;whiteSpace=wrap;html=1;" vertex="1" parent="XcWfCShOmDu8Nu97XLVq-1">
          <mxGeometry y="26" width="160" height="26" as="geometry" />
        </mxCell>
        <mxCell id="XcWfCShOmDu8Nu97XLVq-3" value="" style="line;strokeWidth=1;fillColor=none;align=left;verticalAlign=middle;spacingTop=-1;spacingLeft=3;spacingRight=3;rotatable=0;labelPosition=right;points=[];portConstraint=eastwest;strokeColor=inherit;" vertex="1" parent="XcWfCShOmDu8Nu97XLVq-1">
          <mxGeometry y="52" width="160" height="8" as="geometry" />
        </mxCell>
        <mxCell id="XcWfCShOmDu8Nu97XLVq-4" value="+&amp;nbsp;dadosPessoa ()&lt;div style=&quot;background-color:#2f2f2f;padding:0px 0px 0px 2px;&quot;&gt;&lt;div style=&quot;color: rgb(170, 170, 170); font-family: Consolas; font-size: 12pt;&quot;&gt;&lt;p style=&quot;background-color:#373737;margin:0;&quot;&gt;&lt;span style=&quot;color:#d9e8f7;&quot;&gt;&lt;/span&gt;&lt;/p&gt;&lt;/div&gt;&lt;/div&gt;" style="text;strokeColor=none;fillColor=none;align=left;verticalAlign=top;spacingLeft=4;spacingRight=4;overflow=hidden;rotatable=0;points=[[0,0.5],[1,0.5]];portConstraint=eastwest;whiteSpace=wrap;html=1;" vertex="1" parent="XcWfCShOmDu8Nu97XLVq-1">
          <mxGeometry y="60" width="160" height="26" as="geometry" />
        </mxCell>
        <mxCell id="XcWfCShOmDu8Nu97XLVq-5" value="+ alterar ()&lt;div style=&quot;background-color:#2f2f2f;padding:0px 0px 0px 2px;&quot;&gt;&lt;div style=&quot;color: rgb(170, 170, 170); font-family: Consolas; font-size: 12pt;&quot;&gt;&lt;p style=&quot;background-color:#373737;margin:0;&quot;&gt;&lt;span style=&quot;color:#d9e8f7;&quot;&gt;&lt;/span&gt;&lt;/p&gt;&lt;/div&gt;&lt;/div&gt;" style="text;strokeColor=none;fillColor=none;align=left;verticalAlign=top;spacingLeft=4;spacingRight=4;overflow=hidden;rotatable=0;points=[[0,0.5],[1,0.5]];portConstraint=eastwest;whiteSpace=wrap;html=1;" vertex="1" parent="XcWfCShOmDu8Nu97XLVq-1">
          <mxGeometry y="86" width="160" height="26" as="geometry" />
        </mxCell>
        <mxCell id="XcWfCShOmDu8Nu97XLVq-6" value="Cliente" style="swimlane;fontStyle=1;align=center;verticalAlign=top;childLayout=stackLayout;horizontal=1;startSize=26;horizontalStack=0;resizeParent=1;resizeParentMax=0;resizeLast=0;collapsible=1;marginBottom=0;whiteSpace=wrap;html=1;" vertex="1" parent="1">
          <mxGeometry x="50" y="-1337" width="160" height="372" as="geometry" />
        </mxCell>
        <mxCell id="XcWfCShOmDu8Nu97XLVq-7" value="- idcliente: int" style="text;strokeColor=none;fillColor=none;align=left;verticalAlign=top;spacingLeft=4;spacingRight=4;overflow=hidden;rotatable=0;points=[[0,0.5],[1,0.5]];portConstraint=eastwest;whiteSpace=wrap;html=1;" vertex="1" parent="XcWfCShOmDu8Nu97XLVq-6">
          <mxGeometry y="26" width="160" height="26" as="geometry" />
        </mxCell>
        <mxCell id="XcWfCShOmDu8Nu97XLVq-26" value="- cpf: String" style="text;strokeColor=none;fillColor=none;align=left;verticalAlign=top;spacingLeft=4;spacingRight=4;overflow=hidden;rotatable=0;points=[[0,0.5],[1,0.5]];portConstraint=eastwest;whiteSpace=wrap;html=1;" vertex="1" parent="XcWfCShOmDu8Nu97XLVq-6">
          <mxGeometry y="52" width="160" height="26" as="geometry" />
        </mxCell>
        <mxCell id="XcWfCShOmDu8Nu97XLVq-27" value="- telefone: String" style="text;strokeColor=none;fillColor=none;align=left;verticalAlign=top;spacingLeft=4;spacingRight=4;overflow=hidden;rotatable=0;points=[[0,0.5],[1,0.5]];portConstraint=eastwest;whiteSpace=wrap;html=1;" vertex="1" parent="XcWfCShOmDu8Nu97XLVq-6">
          <mxGeometry y="78" width="160" height="26" as="geometry" />
        </mxCell>
        <mxCell id="XcWfCShOmDu8Nu97XLVq-28" value="- endereco: String" style="text;strokeColor=none;fillColor=none;align=left;verticalAlign=top;spacingLeft=4;spacingRight=4;overflow=hidden;rotatable=0;points=[[0,0.5],[1,0.5]];portConstraint=eastwest;whiteSpace=wrap;html=1;" vertex="1" parent="XcWfCShOmDu8Nu97XLVq-6">
          <mxGeometry y="104" width="160" height="26" as="geometry" />
        </mxCell>
        <mxCell id="XcWfCShOmDu8Nu97XLVq-29" value="- logradouro: String" style="text;strokeColor=none;fillColor=none;align=left;verticalAlign=top;spacingLeft=4;spacingRight=4;overflow=hidden;rotatable=0;points=[[0,0.5],[1,0.5]];portConstraint=eastwest;whiteSpace=wrap;html=1;" vertex="1" parent="XcWfCShOmDu8Nu97XLVq-6">
          <mxGeometry y="130" width="160" height="26" as="geometry" />
        </mxCell>
        <mxCell id="XcWfCShOmDu8Nu97XLVq-30" value="- numero: int" style="text;strokeColor=none;fillColor=none;align=left;verticalAlign=top;spacingLeft=4;spacingRight=4;overflow=hidden;rotatable=0;points=[[0,0.5],[1,0.5]];portConstraint=eastwest;whiteSpace=wrap;html=1;" vertex="1" parent="XcWfCShOmDu8Nu97XLVq-6">
          <mxGeometry y="156" width="160" height="26" as="geometry" />
        </mxCell>
        <mxCell id="XcWfCShOmDu8Nu97XLVq-31" value="- bairro: String" style="text;strokeColor=none;fillColor=none;align=left;verticalAlign=top;spacingLeft=4;spacingRight=4;overflow=hidden;rotatable=0;points=[[0,0.5],[1,0.5]];portConstraint=eastwest;whiteSpace=wrap;html=1;" vertex="1" parent="XcWfCShOmDu8Nu97XLVq-6">
          <mxGeometry y="182" width="160" height="26" as="geometry" />
        </mxCell>
        <mxCell id="XcWfCShOmDu8Nu97XLVq-32" value="- cidade: String" style="text;strokeColor=none;fillColor=none;align=left;verticalAlign=top;spacingLeft=4;spacingRight=4;overflow=hidden;rotatable=0;points=[[0,0.5],[1,0.5]];portConstraint=eastwest;whiteSpace=wrap;html=1;" vertex="1" parent="XcWfCShOmDu8Nu97XLVq-6">
          <mxGeometry y="208" width="160" height="26" as="geometry" />
        </mxCell>
        <mxCell id="XcWfCShOmDu8Nu97XLVq-33" value="- uf: String" style="text;strokeColor=none;fillColor=none;align=left;verticalAlign=top;spacingLeft=4;spacingRight=4;overflow=hidden;rotatable=0;points=[[0,0.5],[1,0.5]];portConstraint=eastwest;whiteSpace=wrap;html=1;" vertex="1" parent="XcWfCShOmDu8Nu97XLVq-6">
          <mxGeometry y="234" width="160" height="26" as="geometry" />
        </mxCell>
        <mxCell id="XcWfCShOmDu8Nu97XLVq-34" value="- email: String" style="text;strokeColor=none;fillColor=none;align=left;verticalAlign=top;spacingLeft=4;spacingRight=4;overflow=hidden;rotatable=0;points=[[0,0.5],[1,0.5]];portConstraint=eastwest;whiteSpace=wrap;html=1;" vertex="1" parent="XcWfCShOmDu8Nu97XLVq-6">
          <mxGeometry y="260" width="160" height="26" as="geometry" />
        </mxCell>
        <mxCell id="XcWfCShOmDu8Nu97XLVq-35" value="- data_nasc: LocalData" style="text;strokeColor=none;fillColor=none;align=left;verticalAlign=top;spacingLeft=4;spacingRight=4;overflow=hidden;rotatable=0;points=[[0,0.5],[1,0.5]];portConstraint=eastwest;whiteSpace=wrap;html=1;" vertex="1" parent="XcWfCShOmDu8Nu97XLVq-6">
          <mxGeometry y="286" width="160" height="26" as="geometry" />
        </mxCell>
        <mxCell id="XcWfCShOmDu8Nu97XLVq-8" value="" style="line;strokeWidth=1;fillColor=none;align=left;verticalAlign=middle;spacingTop=-1;spacingLeft=3;spacingRight=3;rotatable=0;labelPosition=right;points=[];portConstraint=eastwest;strokeColor=inherit;" vertex="1" parent="XcWfCShOmDu8Nu97XLVq-6">
          <mxGeometry y="312" width="160" height="8" as="geometry" />
        </mxCell>
        <mxCell id="XcWfCShOmDu8Nu97XLVq-9" value="+&amp;nbsp;cadastrar (): Cliente&lt;div style=&quot;background-color:#2f2f2f;padding:0px 0px 0px 2px;&quot;&gt;&lt;div style=&quot;color: rgb(170, 170, 170); font-family: Consolas; font-size: 12pt;&quot;&gt;&lt;p style=&quot;background-color:#373737;margin:0;&quot;&gt;&lt;span style=&quot;color:#d9e8f7;&quot;&gt;&lt;/span&gt;&lt;/p&gt;&lt;/div&gt;&lt;/div&gt;" style="text;strokeColor=none;fillColor=none;align=left;verticalAlign=top;spacingLeft=4;spacingRight=4;overflow=hidden;rotatable=0;points=[[0,0.5],[1,0.5]];portConstraint=eastwest;whiteSpace=wrap;html=1;" vertex="1" parent="XcWfCShOmDu8Nu97XLVq-6">
          <mxGeometry y="320" width="160" height="26" as="geometry" />
        </mxCell>
        <mxCell id="XcWfCShOmDu8Nu97XLVq-36" value="+ alterar (Cliente): Cliente&lt;div style=&quot;background-color:#2f2f2f;padding:0px 0px 0px 2px;&quot;&gt;&lt;div style=&quot;color: rgb(170, 170, 170); font-family: Consolas; font-size: 12pt;&quot;&gt;&lt;p style=&quot;background-color:#373737;margin:0;&quot;&gt;&lt;span style=&quot;color:#d9e8f7;&quot;&gt;&lt;/span&gt;&lt;/p&gt;&lt;/div&gt;&lt;/div&gt;" style="text;strokeColor=none;fillColor=none;align=left;verticalAlign=top;spacingLeft=4;spacingRight=4;overflow=hidden;rotatable=0;points=[[0,0.5],[1,0.5]];portConstraint=eastwest;whiteSpace=wrap;html=1;" vertex="1" parent="XcWfCShOmDu8Nu97XLVq-6">
          <mxGeometry y="346" width="160" height="26" as="geometry" />
        </mxCell>
        <mxCell id="XcWfCShOmDu8Nu97XLVq-47" value="Empresa" style="swimlane;fontStyle=1;align=center;verticalAlign=top;childLayout=stackLayout;horizontal=1;startSize=26;horizontalStack=0;resizeParent=1;resizeParentMax=0;resizeLast=0;collapsible=1;marginBottom=0;whiteSpace=wrap;html=1;" vertex="1" parent="1">
          <mxGeometry x="2160" y="-1233" width="210" height="164" as="geometry" />
        </mxCell>
        <mxCell id="XcWfCShOmDu8Nu97XLVq-48" value="- idempresa: int" style="text;strokeColor=none;fillColor=none;align=left;verticalAlign=top;spacingLeft=4;spacingRight=4;overflow=hidden;rotatable=0;points=[[0,0.5],[1,0.5]];portConstraint=eastwest;whiteSpace=wrap;html=1;" vertex="1" parent="XcWfCShOmDu8Nu97XLVq-47">
          <mxGeometry y="26" width="210" height="26" as="geometry" />
        </mxCell>
        <mxCell id="XcWfCShOmDu8Nu97XLVq-51" value="- nome_fantasia: String" style="text;strokeColor=none;fillColor=none;align=left;verticalAlign=top;spacingLeft=4;spacingRight=4;overflow=hidden;rotatable=0;points=[[0,0.5],[1,0.5]];portConstraint=eastwest;whiteSpace=wrap;html=1;" vertex="1" parent="XcWfCShOmDu8Nu97XLVq-47">
          <mxGeometry y="52" width="210" height="26" as="geometry" />
        </mxCell>
        <mxCell id="XcWfCShOmDu8Nu97XLVq-52" value="- razao_social: String" style="text;strokeColor=none;fillColor=none;align=left;verticalAlign=top;spacingLeft=4;spacingRight=4;overflow=hidden;rotatable=0;points=[[0,0.5],[1,0.5]];portConstraint=eastwest;whiteSpace=wrap;html=1;" vertex="1" parent="XcWfCShOmDu8Nu97XLVq-47">
          <mxGeometry y="78" width="210" height="26" as="geometry" />
        </mxCell>
        <mxCell id="XcWfCShOmDu8Nu97XLVq-49" value="" style="line;strokeWidth=1;fillColor=none;align=left;verticalAlign=middle;spacingTop=-1;spacingLeft=3;spacingRight=3;rotatable=0;labelPosition=right;points=[];portConstraint=eastwest;strokeColor=inherit;" vertex="1" parent="XcWfCShOmDu8Nu97XLVq-47">
          <mxGeometry y="104" width="210" height="8" as="geometry" />
        </mxCell>
        <mxCell id="XcWfCShOmDu8Nu97XLVq-50" value="+&amp;nbsp;cadastrar (): Empresa" style="text;strokeColor=none;fillColor=none;align=left;verticalAlign=top;spacingLeft=4;spacingRight=4;overflow=hidden;rotatable=0;points=[[0,0.5],[1,0.5]];portConstraint=eastwest;whiteSpace=wrap;html=1;" vertex="1" parent="XcWfCShOmDu8Nu97XLVq-47">
          <mxGeometry y="112" width="210" height="26" as="geometry" />
        </mxCell>
        <mxCell id="XcWfCShOmDu8Nu97XLVq-53" value="+ alterar (Empresa): Empresa" style="text;strokeColor=none;fillColor=none;align=left;verticalAlign=top;spacingLeft=4;spacingRight=4;overflow=hidden;rotatable=0;points=[[0,0.5],[1,0.5]];portConstraint=eastwest;whiteSpace=wrap;html=1;" vertex="1" parent="XcWfCShOmDu8Nu97XLVq-47">
          <mxGeometry y="138" width="210" height="26" as="geometry" />
        </mxCell>
        <mxCell id="XcWfCShOmDu8Nu97XLVq-54" value="Pedido" style="swimlane;fontStyle=1;align=center;verticalAlign=top;childLayout=stackLayout;horizontal=1;startSize=26;horizontalStack=0;resizeParent=1;resizeParentMax=0;resizeLast=0;collapsible=1;marginBottom=0;whiteSpace=wrap;html=1;" vertex="1" parent="1">
          <mxGeometry x="90" y="643" width="290" height="164" as="geometry" />
        </mxCell>
        <mxCell id="XcWfCShOmDu8Nu97XLVq-55" value="- idpedido : int" style="text;strokeColor=none;fillColor=none;align=left;verticalAlign=top;spacingLeft=4;spacingRight=4;overflow=hidden;rotatable=0;points=[[0,0.5],[1,0.5]];portConstraint=eastwest;whiteSpace=wrap;html=1;" vertex="1" parent="XcWfCShOmDu8Nu97XLVq-54">
          <mxGeometry y="26" width="290" height="26" as="geometry" />
        </mxCell>
        <mxCell id="XcWfCShOmDu8Nu97XLVq-58" value="- data_ped: LocalDate" style="text;strokeColor=none;fillColor=none;align=left;verticalAlign=top;spacingLeft=4;spacingRight=4;overflow=hidden;rotatable=0;points=[[0,0.5],[1,0.5]];portConstraint=eastwest;whiteSpace=wrap;html=1;" vertex="1" parent="XcWfCShOmDu8Nu97XLVq-54">
          <mxGeometry y="52" width="290" height="26" as="geometry" />
        </mxCell>
        <mxCell id="XcWfCShOmDu8Nu97XLVq-59" value="- idcliente: int" style="text;strokeColor=none;fillColor=none;align=left;verticalAlign=top;spacingLeft=4;spacingRight=4;overflow=hidden;rotatable=0;points=[[0,0.5],[1,0.5]];portConstraint=eastwest;whiteSpace=wrap;html=1;" vertex="1" parent="XcWfCShOmDu8Nu97XLVq-54">
          <mxGeometry y="78" width="290" height="26" as="geometry" />
        </mxCell>
        <mxCell id="XcWfCShOmDu8Nu97XLVq-56" value="" style="line;strokeWidth=1;fillColor=none;align=left;verticalAlign=middle;spacingTop=-1;spacingLeft=3;spacingRight=3;rotatable=0;labelPosition=right;points=[];portConstraint=eastwest;strokeColor=inherit;" vertex="1" parent="XcWfCShOmDu8Nu97XLVq-54">
          <mxGeometry y="104" width="290" height="8" as="geometry" />
        </mxCell>
        <mxCell id="XcWfCShOmDu8Nu97XLVq-57" value="+&amp;nbsp;cadastrar (Conexao,String): Pedido" style="text;strokeColor=none;fillColor=none;align=left;verticalAlign=top;spacingLeft=4;spacingRight=4;overflow=hidden;rotatable=0;points=[[0,0.5],[1,0.5]];portConstraint=eastwest;whiteSpace=wrap;html=1;" vertex="1" parent="XcWfCShOmDu8Nu97XLVq-54">
          <mxGeometry y="112" width="290" height="26" as="geometry" />
        </mxCell>
        <mxCell id="XcWfCShOmDu8Nu97XLVq-60" value="+ alterar (Conexao,String,Pedido): Pedido" style="text;strokeColor=none;fillColor=none;align=left;verticalAlign=top;spacingLeft=4;spacingRight=4;overflow=hidden;rotatable=0;points=[[0,0.5],[1,0.5]];portConstraint=eastwest;whiteSpace=wrap;html=1;" vertex="1" parent="XcWfCShOmDu8Nu97XLVq-54">
          <mxGeometry y="138" width="290" height="26" as="geometry" />
        </mxCell>
        <mxCell id="XcWfCShOmDu8Nu97XLVq-61" value="PedidoItem" style="swimlane;fontStyle=1;align=center;verticalAlign=top;childLayout=stackLayout;horizontal=1;startSize=26;horizontalStack=0;resizeParent=1;resizeParentMax=0;resizeLast=0;collapsible=1;marginBottom=0;whiteSpace=wrap;html=1;" vertex="1" parent="1">
          <mxGeometry y="-360" width="290" height="190" as="geometry" />
        </mxCell>
        <mxCell id="XcWfCShOmDu8Nu97XLVq-62" value="- idpedidoitem: int" style="text;strokeColor=none;fillColor=none;align=left;verticalAlign=top;spacingLeft=4;spacingRight=4;overflow=hidden;rotatable=0;points=[[0,0.5],[1,0.5]];portConstraint=eastwest;whiteSpace=wrap;html=1;" vertex="1" parent="XcWfCShOmDu8Nu97XLVq-61">
          <mxGeometry y="26" width="290" height="26" as="geometry" />
        </mxCell>
        <mxCell id="XcWfCShOmDu8Nu97XLVq-65" value="- qtd: double" style="text;strokeColor=none;fillColor=none;align=left;verticalAlign=top;spacingLeft=4;spacingRight=4;overflow=hidden;rotatable=0;points=[[0,0.5],[1,0.5]];portConstraint=eastwest;whiteSpace=wrap;html=1;" vertex="1" parent="XcWfCShOmDu8Nu97XLVq-61">
          <mxGeometry y="52" width="290" height="26" as="geometry" />
        </mxCell>
        <mxCell id="XcWfCShOmDu8Nu97XLVq-66" value="- idpedido: int" style="text;strokeColor=none;fillColor=none;align=left;verticalAlign=top;spacingLeft=4;spacingRight=4;overflow=hidden;rotatable=0;points=[[0,0.5],[1,0.5]];portConstraint=eastwest;whiteSpace=wrap;html=1;" vertex="1" parent="XcWfCShOmDu8Nu97XLVq-61">
          <mxGeometry y="78" width="290" height="26" as="geometry" />
        </mxCell>
        <mxCell id="XcWfCShOmDu8Nu97XLVq-67" value="- idprodemp: int" style="text;strokeColor=none;fillColor=none;align=left;verticalAlign=top;spacingLeft=4;spacingRight=4;overflow=hidden;rotatable=0;points=[[0,0.5],[1,0.5]];portConstraint=eastwest;whiteSpace=wrap;html=1;" vertex="1" parent="XcWfCShOmDu8Nu97XLVq-61">
          <mxGeometry y="104" width="290" height="26" as="geometry" />
        </mxCell>
        <mxCell id="XcWfCShOmDu8Nu97XLVq-63" value="" style="line;strokeWidth=1;fillColor=none;align=left;verticalAlign=middle;spacingTop=-1;spacingLeft=3;spacingRight=3;rotatable=0;labelPosition=right;points=[];portConstraint=eastwest;strokeColor=inherit;" vertex="1" parent="XcWfCShOmDu8Nu97XLVq-61">
          <mxGeometry y="130" width="290" height="8" as="geometry" />
        </mxCell>
        <mxCell id="XcWfCShOmDu8Nu97XLVq-64" value="+&amp;nbsp;cadastrar (Conexao,String): Pedidoitem" style="text;strokeColor=none;fillColor=none;align=left;verticalAlign=top;spacingLeft=4;spacingRight=4;overflow=hidden;rotatable=0;points=[[0,0.5],[1,0.5]];portConstraint=eastwest;whiteSpace=wrap;html=1;" vertex="1" parent="XcWfCShOmDu8Nu97XLVq-61">
          <mxGeometry y="138" width="290" height="26" as="geometry" />
        </mxCell>
        <mxCell id="XcWfCShOmDu8Nu97XLVq-74" value="+ alterar (Conexao,String,PedidoItem): Pedidoitem" style="text;strokeColor=none;fillColor=none;align=left;verticalAlign=top;spacingLeft=4;spacingRight=4;overflow=hidden;rotatable=0;points=[[0,0.5],[1,0.5]];portConstraint=eastwest;whiteSpace=wrap;html=1;" vertex="1" parent="XcWfCShOmDu8Nu97XLVq-61">
          <mxGeometry y="164" width="290" height="26" as="geometry" />
        </mxCell>
        <mxCell id="XcWfCShOmDu8Nu97XLVq-75" value="ProdEmpr" style="swimlane;fontStyle=1;align=center;verticalAlign=top;childLayout=stackLayout;horizontal=1;startSize=26;horizontalStack=0;resizeParent=1;resizeParentMax=0;resizeLast=0;collapsible=1;marginBottom=0;whiteSpace=wrap;html=1;" vertex="1" parent="1">
          <mxGeometry x="2075" y="630" width="290" height="190" as="geometry" />
        </mxCell>
        <mxCell id="XcWfCShOmDu8Nu97XLVq-76" value="- idprodempr: int" style="text;strokeColor=none;fillColor=none;align=left;verticalAlign=top;spacingLeft=4;spacingRight=4;overflow=hidden;rotatable=0;points=[[0,0.5],[1,0.5]];portConstraint=eastwest;whiteSpace=wrap;html=1;" vertex="1" parent="XcWfCShOmDu8Nu97XLVq-75">
          <mxGeometry y="26" width="290" height="26" as="geometry" />
        </mxCell>
        <mxCell id="XcWfCShOmDu8Nu97XLVq-79" value="- vl_un: double" style="text;strokeColor=none;fillColor=none;align=left;verticalAlign=top;spacingLeft=4;spacingRight=4;overflow=hidden;rotatable=0;points=[[0,0.5],[1,0.5]];portConstraint=eastwest;whiteSpace=wrap;html=1;" vertex="1" parent="XcWfCShOmDu8Nu97XLVq-75">
          <mxGeometry y="52" width="290" height="26" as="geometry" />
        </mxCell>
        <mxCell id="XcWfCShOmDu8Nu97XLVq-80" value="- idproduto" style="text;strokeColor=none;fillColor=none;align=left;verticalAlign=top;spacingLeft=4;spacingRight=4;overflow=hidden;rotatable=0;points=[[0,0.5],[1,0.5]];portConstraint=eastwest;whiteSpace=wrap;html=1;" vertex="1" parent="XcWfCShOmDu8Nu97XLVq-75">
          <mxGeometry y="78" width="290" height="26" as="geometry" />
        </mxCell>
        <mxCell id="XcWfCShOmDu8Nu97XLVq-81" value="- idempresa" style="text;strokeColor=none;fillColor=none;align=left;verticalAlign=top;spacingLeft=4;spacingRight=4;overflow=hidden;rotatable=0;points=[[0,0.5],[1,0.5]];portConstraint=eastwest;whiteSpace=wrap;html=1;" vertex="1" parent="XcWfCShOmDu8Nu97XLVq-75">
          <mxGeometry y="104" width="290" height="26" as="geometry" />
        </mxCell>
        <mxCell id="XcWfCShOmDu8Nu97XLVq-77" value="" style="line;strokeWidth=1;fillColor=none;align=left;verticalAlign=middle;spacingTop=-1;spacingLeft=3;spacingRight=3;rotatable=0;labelPosition=right;points=[];portConstraint=eastwest;strokeColor=inherit;" vertex="1" parent="XcWfCShOmDu8Nu97XLVq-75">
          <mxGeometry y="130" width="290" height="8" as="geometry" />
        </mxCell>
        <mxCell id="XcWfCShOmDu8Nu97XLVq-78" value="+&amp;nbsp;cadastrar (Conexao,String): ProdEmpr" style="text;strokeColor=none;fillColor=none;align=left;verticalAlign=top;spacingLeft=4;spacingRight=4;overflow=hidden;rotatable=0;points=[[0,0.5],[1,0.5]];portConstraint=eastwest;whiteSpace=wrap;html=1;" vertex="1" parent="XcWfCShOmDu8Nu97XLVq-75">
          <mxGeometry y="138" width="290" height="26" as="geometry" />
        </mxCell>
        <mxCell id="XcWfCShOmDu8Nu97XLVq-82" value="+ alterar (Conexao,String,ProdEmpr): ProdEmpr" style="text;strokeColor=none;fillColor=none;align=left;verticalAlign=top;spacingLeft=4;spacingRight=4;overflow=hidden;rotatable=0;points=[[0,0.5],[1,0.5]];portConstraint=eastwest;whiteSpace=wrap;html=1;" vertex="1" parent="XcWfCShOmDu8Nu97XLVq-75">
          <mxGeometry y="164" width="290" height="26" as="geometry" />
        </mxCell>
        <mxCell id="XcWfCShOmDu8Nu97XLVq-84" value="Pruduto" style="swimlane;fontStyle=1;align=center;verticalAlign=top;childLayout=stackLayout;horizontal=1;startSize=26;horizontalStack=0;resizeParent=1;resizeParentMax=0;resizeLast=0;collapsible=1;marginBottom=0;whiteSpace=wrap;html=1;" vertex="1" parent="1">
          <mxGeometry x="2185" y="-440" width="160" height="164" as="geometry" />
        </mxCell>
        <mxCell id="XcWfCShOmDu8Nu97XLVq-85" value="- idproduto: int" style="text;strokeColor=none;fillColor=none;align=left;verticalAlign=top;spacingLeft=4;spacingRight=4;overflow=hidden;rotatable=0;points=[[0,0.5],[1,0.5]];portConstraint=eastwest;whiteSpace=wrap;html=1;" vertex="1" parent="XcWfCShOmDu8Nu97XLVq-84">
          <mxGeometry y="26" width="160" height="26" as="geometry" />
        </mxCell>
        <mxCell id="XcWfCShOmDu8Nu97XLVq-88" value="- nome_prod: String" style="text;strokeColor=none;fillColor=none;align=left;verticalAlign=top;spacingLeft=4;spacingRight=4;overflow=hidden;rotatable=0;points=[[0,0.5],[1,0.5]];portConstraint=eastwest;whiteSpace=wrap;html=1;" vertex="1" parent="XcWfCShOmDu8Nu97XLVq-84">
          <mxGeometry y="52" width="160" height="26" as="geometry" />
        </mxCell>
        <mxCell id="XcWfCShOmDu8Nu97XLVq-89" value="- descricao: String" style="text;strokeColor=none;fillColor=none;align=left;verticalAlign=top;spacingLeft=4;spacingRight=4;overflow=hidden;rotatable=0;points=[[0,0.5],[1,0.5]];portConstraint=eastwest;whiteSpace=wrap;html=1;" vertex="1" parent="XcWfCShOmDu8Nu97XLVq-84">
          <mxGeometry y="78" width="160" height="26" as="geometry" />
        </mxCell>
        <mxCell id="XcWfCShOmDu8Nu97XLVq-86" value="" style="line;strokeWidth=1;fillColor=none;align=left;verticalAlign=middle;spacingTop=-1;spacingLeft=3;spacingRight=3;rotatable=0;labelPosition=right;points=[];portConstraint=eastwest;strokeColor=inherit;" vertex="1" parent="XcWfCShOmDu8Nu97XLVq-84">
          <mxGeometry y="104" width="160" height="8" as="geometry" />
        </mxCell>
        <mxCell id="XcWfCShOmDu8Nu97XLVq-87" value="+&amp;nbsp;cadastrar (): Produto" style="text;strokeColor=none;fillColor=none;align=left;verticalAlign=top;spacingLeft=4;spacingRight=4;overflow=hidden;rotatable=0;points=[[0,0.5],[1,0.5]];portConstraint=eastwest;whiteSpace=wrap;html=1;" vertex="1" parent="XcWfCShOmDu8Nu97XLVq-84">
          <mxGeometry y="112" width="160" height="26" as="geometry" />
        </mxCell>
        <mxCell id="XcWfCShOmDu8Nu97XLVq-90" value="+ alterar (Produto): Produto" style="text;strokeColor=none;fillColor=none;align=left;verticalAlign=top;spacingLeft=4;spacingRight=4;overflow=hidden;rotatable=0;points=[[0,0.5],[1,0.5]];portConstraint=eastwest;whiteSpace=wrap;html=1;" vertex="1" parent="XcWfCShOmDu8Nu97XLVq-84">
          <mxGeometry y="138" width="160" height="26" as="geometry" />
        </mxCell>
        <mxCell id="XcWfCShOmDu8Nu97XLVq-91" value="Conexao" style="swimlane;fontStyle=1;align=center;verticalAlign=top;childLayout=stackLayout;horizontal=1;startSize=26;horizontalStack=0;resizeParent=1;resizeParentMax=0;resizeLast=0;collapsible=1;marginBottom=0;whiteSpace=wrap;html=1;" vertex="1" parent="1">
          <mxGeometry x="1161" y="-560" width="169" height="320" as="geometry" />
        </mxCell>
        <mxCell id="XcWfCShOmDu8Nu97XLVq-92" value="- local: String" style="text;strokeColor=none;fillColor=none;align=left;verticalAlign=top;spacingLeft=4;spacingRight=4;overflow=hidden;rotatable=0;points=[[0,0.5],[1,0.5]];portConstraint=eastwest;whiteSpace=wrap;html=1;" vertex="1" parent="XcWfCShOmDu8Nu97XLVq-91">
          <mxGeometry y="26" width="169" height="26" as="geometry" />
        </mxCell>
        <mxCell id="XcWfCShOmDu8Nu97XLVq-95" value="- senha: String" style="text;strokeColor=none;fillColor=none;align=left;verticalAlign=top;spacingLeft=4;spacingRight=4;overflow=hidden;rotatable=0;points=[[0,0.5],[1,0.5]];portConstraint=eastwest;whiteSpace=wrap;html=1;" vertex="1" parent="XcWfCShOmDu8Nu97XLVq-91">
          <mxGeometry y="52" width="169" height="26" as="geometry" />
        </mxCell>
        <mxCell id="XcWfCShOmDu8Nu97XLVq-96" value="- user: String" style="text;strokeColor=none;fillColor=none;align=left;verticalAlign=top;spacingLeft=4;spacingRight=4;overflow=hidden;rotatable=0;points=[[0,0.5],[1,0.5]];portConstraint=eastwest;whiteSpace=wrap;html=1;" vertex="1" parent="XcWfCShOmDu8Nu97XLVq-91">
          <mxGeometry y="78" width="169" height="26" as="geometry" />
        </mxCell>
        <mxCell id="XcWfCShOmDu8Nu97XLVq-97" value="- c: Connection" style="text;strokeColor=none;fillColor=none;align=left;verticalAlign=top;spacingLeft=4;spacingRight=4;overflow=hidden;rotatable=0;points=[[0,0.5],[1,0.5]];portConstraint=eastwest;whiteSpace=wrap;html=1;" vertex="1" parent="XcWfCShOmDu8Nu97XLVq-91">
          <mxGeometry y="104" width="169" height="26" as="geometry" />
        </mxCell>
        <mxCell id="XcWfCShOmDu8Nu97XLVq-98" value="- statement: statement" style="text;strokeColor=none;fillColor=none;align=left;verticalAlign=top;spacingLeft=4;spacingRight=4;overflow=hidden;rotatable=0;points=[[0,0.5],[1,0.5]];portConstraint=eastwest;whiteSpace=wrap;html=1;" vertex="1" parent="XcWfCShOmDu8Nu97XLVq-91">
          <mxGeometry y="130" width="169" height="26" as="geometry" />
        </mxCell>
        <mxCell id="XcWfCShOmDu8Nu97XLVq-99" value="- str_conexao: String" style="text;strokeColor=none;fillColor=none;align=left;verticalAlign=top;spacingLeft=4;spacingRight=4;overflow=hidden;rotatable=0;points=[[0,0.5],[1,0.5]];portConstraint=eastwest;whiteSpace=wrap;html=1;" vertex="1" parent="XcWfCShOmDu8Nu97XLVq-91">
          <mxGeometry y="156" width="169" height="26" as="geometry" />
        </mxCell>
        <mxCell id="XcWfCShOmDu8Nu97XLVq-100" value="- driverjdbc: String" style="text;strokeColor=none;fillColor=none;align=left;verticalAlign=top;spacingLeft=4;spacingRight=4;overflow=hidden;rotatable=0;points=[[0,0.5],[1,0.5]];portConstraint=eastwest;whiteSpace=wrap;html=1;" vertex="1" parent="XcWfCShOmDu8Nu97XLVq-91">
          <mxGeometry y="182" width="169" height="26" as="geometry" />
        </mxCell>
        <mxCell id="XcWfCShOmDu8Nu97XLVq-93" value="" style="line;strokeWidth=1;fillColor=none;align=left;verticalAlign=middle;spacingTop=-1;spacingLeft=3;spacingRight=3;rotatable=0;labelPosition=right;points=[];portConstraint=eastwest;strokeColor=inherit;" vertex="1" parent="XcWfCShOmDu8Nu97XLVq-91">
          <mxGeometry y="208" width="169" height="8" as="geometry" />
        </mxCell>
        <mxCell id="XcWfCShOmDu8Nu97XLVq-94" value="+ Conexao (DadosConexao)" style="text;strokeColor=none;fillColor=none;align=left;verticalAlign=top;spacingLeft=4;spacingRight=4;overflow=hidden;rotatable=0;points=[[0,0.5],[1,0.5]];portConstraint=eastwest;whiteSpace=wrap;html=1;" vertex="1" parent="XcWfCShOmDu8Nu97XLVq-91">
          <mxGeometry y="216" width="169" height="26" as="geometry" />
        </mxCell>
        <mxCell id="XcWfCShOmDu8Nu97XLVq-101" value="+ conect ()" style="text;strokeColor=none;fillColor=none;align=left;verticalAlign=top;spacingLeft=4;spacingRight=4;overflow=hidden;rotatable=0;points=[[0,0.5],[1,0.5]];portConstraint=eastwest;whiteSpace=wrap;html=1;" vertex="1" parent="XcWfCShOmDu8Nu97XLVq-91">
          <mxGeometry y="242" width="169" height="26" as="geometry" />
        </mxCell>
        <mxCell id="XcWfCShOmDu8Nu97XLVq-102" value="+ desconect ()" style="text;strokeColor=none;fillColor=none;align=left;verticalAlign=top;spacingLeft=4;spacingRight=4;overflow=hidden;rotatable=0;points=[[0,0.5],[1,0.5]];portConstraint=eastwest;whiteSpace=wrap;html=1;" vertex="1" parent="XcWfCShOmDu8Nu97XLVq-91">
          <mxGeometry y="268" width="169" height="26" as="geometry" />
        </mxCell>
        <mxCell id="XcWfCShOmDu8Nu97XLVq-103" value="- query (String): ResultSet" style="text;strokeColor=none;fillColor=none;align=left;verticalAlign=top;spacingLeft=4;spacingRight=4;overflow=hidden;rotatable=0;points=[[0,0.5],[1,0.5]];portConstraint=eastwest;whiteSpace=wrap;html=1;" vertex="1" parent="XcWfCShOmDu8Nu97XLVq-91">
          <mxGeometry y="294" width="169" height="26" as="geometry" />
        </mxCell>
        <mxCell id="XcWfCShOmDu8Nu97XLVq-104" value="DadosConexao" style="swimlane;fontStyle=0;childLayout=stackLayout;horizontal=1;startSize=26;fillColor=none;horizontalStack=0;resizeParent=1;resizeParentMax=0;resizeLast=0;collapsible=1;marginBottom=0;whiteSpace=wrap;html=1;" vertex="1" parent="1">
          <mxGeometry x="1171" y="-156" width="140" height="156" as="geometry" />
        </mxCell>
        <mxCell id="XcWfCShOmDu8Nu97XLVq-106" value="- local: String" style="text;strokeColor=none;fillColor=none;align=left;verticalAlign=top;spacingLeft=4;spacingRight=4;overflow=hidden;rotatable=0;points=[[0,0.5],[1,0.5]];portConstraint=eastwest;whiteSpace=wrap;html=1;" vertex="1" parent="XcWfCShOmDu8Nu97XLVq-104">
          <mxGeometry y="26" width="140" height="26" as="geometry" />
        </mxCell>
        <mxCell id="XcWfCShOmDu8Nu97XLVq-107" value="- senha: String" style="text;strokeColor=none;fillColor=none;align=left;verticalAlign=top;spacingLeft=4;spacingRight=4;overflow=hidden;rotatable=0;points=[[0,0.5],[1,0.5]];portConstraint=eastwest;whiteSpace=wrap;html=1;" vertex="1" parent="XcWfCShOmDu8Nu97XLVq-104">
          <mxGeometry y="52" width="140" height="26" as="geometry" />
        </mxCell>
        <mxCell id="XcWfCShOmDu8Nu97XLVq-112" value="- porta: String" style="text;strokeColor=none;fillColor=none;align=left;verticalAlign=top;spacingLeft=4;spacingRight=4;overflow=hidden;rotatable=0;points=[[0,0.5],[1,0.5]];portConstraint=eastwest;whiteSpace=wrap;html=1;" vertex="1" parent="XcWfCShOmDu8Nu97XLVq-104">
          <mxGeometry y="78" width="140" height="26" as="geometry" />
        </mxCell>
        <mxCell id="XcWfCShOmDu8Nu97XLVq-113" value="- bd: String" style="text;strokeColor=none;fillColor=none;align=left;verticalAlign=top;spacingLeft=4;spacingRight=4;overflow=hidden;rotatable=0;points=[[0,0.5],[1,0.5]];portConstraint=eastwest;whiteSpace=wrap;html=1;" vertex="1" parent="XcWfCShOmDu8Nu97XLVq-104">
          <mxGeometry y="104" width="140" height="26" as="geometry" />
        </mxCell>
        <mxCell id="XcWfCShOmDu8Nu97XLVq-114" value="- banco: String" style="text;strokeColor=none;fillColor=none;align=left;verticalAlign=top;spacingLeft=4;spacingRight=4;overflow=hidden;rotatable=0;points=[[0,0.5],[1,0.5]];portConstraint=eastwest;whiteSpace=wrap;html=1;" vertex="1" parent="XcWfCShOmDu8Nu97XLVq-104">
          <mxGeometry y="130" width="140" height="26" as="geometry" />
        </mxCell>
        <mxCell id="XcWfCShOmDu8Nu97XLVq-115" value="CreateDAO" style="swimlane;fontStyle=1;align=center;verticalAlign=top;childLayout=stackLayout;horizontal=1;startSize=26;horizontalStack=0;resizeParent=1;resizeParentMax=0;resizeLast=0;collapsible=1;marginBottom=0;whiteSpace=wrap;html=1;" vertex="1" parent="1">
          <mxGeometry x="1016" y="-1169" width="450" height="424" as="geometry" />
        </mxCell>
        <mxCell id="XcWfCShOmDu8Nu97XLVq-116" value="- conexao : Conexao" style="text;strokeColor=none;fillColor=none;align=left;verticalAlign=top;spacingLeft=4;spacingRight=4;overflow=hidden;rotatable=0;points=[[0,0.5],[1,0.5]];portConstraint=eastwest;whiteSpace=wrap;html=1;" vertex="1" parent="XcWfCShOmDu8Nu97XLVq-115">
          <mxGeometry y="26" width="450" height="26" as="geometry" />
        </mxCell>
        <mxCell id="XcWfCShOmDu8Nu97XLVq-117" value="" style="line;strokeWidth=1;fillColor=none;align=left;verticalAlign=middle;spacingTop=-1;spacingLeft=3;spacingRight=3;rotatable=0;labelPosition=right;points=[];portConstraint=eastwest;strokeColor=inherit;" vertex="1" parent="XcWfCShOmDu8Nu97XLVq-115">
          <mxGeometry y="52" width="450" height="8" as="geometry" />
        </mxCell>
        <mxCell id="XcWfCShOmDu8Nu97XLVq-118" value="+ createBD (String,String,DadosConexao): boolean" style="text;strokeColor=none;fillColor=none;align=left;verticalAlign=top;spacingLeft=4;spacingRight=4;overflow=hidden;rotatable=0;points=[[0,0.5],[1,0.5]];portConstraint=eastwest;whiteSpace=wrap;html=1;" vertex="1" parent="XcWfCShOmDu8Nu97XLVq-115">
          <mxGeometry y="60" width="450" height="26" as="geometry" />
        </mxCell>
        <mxCell id="XcWfCShOmDu8Nu97XLVq-119" value="- conectar (String. DadosConexao): Conectar" style="text;strokeColor=none;fillColor=none;align=left;verticalAlign=top;spacingLeft=4;spacingRight=4;overflow=hidden;rotatable=0;points=[[0,0.5],[1,0.5]];portConstraint=eastwest;whiteSpace=wrap;html=1;" vertex="1" parent="XcWfCShOmDu8Nu97XLVq-115">
          <mxGeometry y="86" width="450" height="26" as="geometry" />
        </mxCell>
        <mxCell id="XcWfCShOmDu8Nu97XLVq-120" value="- desconectar (Conexao)&amp;nbsp;" style="text;strokeColor=none;fillColor=none;align=left;verticalAlign=top;spacingLeft=4;spacingRight=4;overflow=hidden;rotatable=0;points=[[0,0.5],[1,0.5]];portConstraint=eastwest;whiteSpace=wrap;html=1;" vertex="1" parent="XcWfCShOmDu8Nu97XLVq-115">
          <mxGeometry y="112" width="450" height="26" as="geometry" />
        </mxCell>
        <mxCell id="XcWfCShOmDu8Nu97XLVq-121" value="- criarDatabase&amp;nbsp;&lt;span style=&quot;background-color: initial;&quot;&gt;(Conexao,String): boolean&amp;nbsp;&lt;/span&gt;" style="text;strokeColor=none;fillColor=none;align=left;verticalAlign=top;spacingLeft=4;spacingRight=4;overflow=hidden;rotatable=0;points=[[0,0.5],[1,0.5]];portConstraint=eastwest;whiteSpace=wrap;html=1;" vertex="1" parent="XcWfCShOmDu8Nu97XLVq-115">
          <mxGeometry y="138" width="450" height="26" as="geometry" />
        </mxCell>
        <mxCell id="XcWfCShOmDu8Nu97XLVq-122" value="- criarSchema&amp;nbsp;&lt;span style=&quot;background-color: initial;&quot;&gt;(Conexao,String): boolean&amp;nbsp;&lt;/span&gt;" style="text;strokeColor=none;fillColor=none;align=left;verticalAlign=top;spacingLeft=4;spacingRight=4;overflow=hidden;rotatable=0;points=[[0,0.5],[1,0.5]];portConstraint=eastwest;whiteSpace=wrap;html=1;" vertex="1" parent="XcWfCShOmDu8Nu97XLVq-115">
          <mxGeometry y="164" width="450" height="26" as="geometry" />
        </mxCell>
        <mxCell id="XcWfCShOmDu8Nu97XLVq-123" value="- criarTabela&amp;nbsp;&lt;span style=&quot;background-color: initial;&quot;&gt;(Conexao,String,String)&amp;nbsp;&amp;nbsp;&lt;/span&gt;" style="text;strokeColor=none;fillColor=none;align=left;verticalAlign=top;spacingLeft=4;spacingRight=4;overflow=hidden;rotatable=0;points=[[0,0.5],[1,0.5]];portConstraint=eastwest;whiteSpace=wrap;html=1;" vertex="1" parent="XcWfCShOmDu8Nu97XLVq-115">
          <mxGeometry y="190" width="450" height="26" as="geometry" />
        </mxCell>
        <mxCell id="XcWfCShOmDu8Nu97XLVq-124" value="- criarCampo&amp;nbsp;&lt;span style=&quot;background-color: initial;&quot;&gt;(Conexao,String,String,String,String,boolean,boolean,String,String)&amp;nbsp;&amp;nbsp;&lt;/span&gt;" style="text;strokeColor=none;fillColor=none;align=left;verticalAlign=top;spacingLeft=4;spacingRight=4;overflow=hidden;rotatable=0;points=[[0,0.5],[1,0.5]];portConstraint=eastwest;whiteSpace=wrap;html=1;" vertex="1" parent="XcWfCShOmDu8Nu97XLVq-115">
          <mxGeometry y="216" width="450" height="26" as="geometry" />
        </mxCell>
        <mxCell id="XcWfCShOmDu8Nu97XLVq-125" value="- criarEntidadeCliente&amp;nbsp;&lt;span style=&quot;background-color: initial;&quot;&gt;(Conexao,String)&amp;nbsp;&amp;nbsp;&lt;/span&gt;" style="text;strokeColor=none;fillColor=none;align=left;verticalAlign=top;spacingLeft=4;spacingRight=4;overflow=hidden;rotatable=0;points=[[0,0.5],[1,0.5]];portConstraint=eastwest;whiteSpace=wrap;html=1;" vertex="1" parent="XcWfCShOmDu8Nu97XLVq-115">
          <mxGeometry y="242" width="450" height="26" as="geometry" />
        </mxCell>
        <mxCell id="XcWfCShOmDu8Nu97XLVq-126" value="- criarEntidadeProduto&amp;nbsp;&lt;span style=&quot;background-color: initial;&quot;&gt;(Conexao,String)&amp;nbsp;&amp;nbsp;&lt;/span&gt;" style="text;strokeColor=none;fillColor=none;align=left;verticalAlign=top;spacingLeft=4;spacingRight=4;overflow=hidden;rotatable=0;points=[[0,0.5],[1,0.5]];portConstraint=eastwest;whiteSpace=wrap;html=1;" vertex="1" parent="XcWfCShOmDu8Nu97XLVq-115">
          <mxGeometry y="268" width="450" height="26" as="geometry" />
        </mxCell>
        <mxCell id="XcWfCShOmDu8Nu97XLVq-127" value="- criarEntidadePedido&amp;nbsp;&lt;span style=&quot;background-color: initial;&quot;&gt;(Conexao,String)&amp;nbsp;&amp;nbsp;&lt;/span&gt;" style="text;strokeColor=none;fillColor=none;align=left;verticalAlign=top;spacingLeft=4;spacingRight=4;overflow=hidden;rotatable=0;points=[[0,0.5],[1,0.5]];portConstraint=eastwest;whiteSpace=wrap;html=1;" vertex="1" parent="XcWfCShOmDu8Nu97XLVq-115">
          <mxGeometry y="294" width="450" height="26" as="geometry" />
        </mxCell>
        <mxCell id="XcWfCShOmDu8Nu97XLVq-128" value="- criarEntidadeEmpresa&amp;nbsp;&lt;span style=&quot;background-color: initial;&quot;&gt;(Conexao,String)&amp;nbsp;&amp;nbsp;&lt;/span&gt;" style="text;strokeColor=none;fillColor=none;align=left;verticalAlign=top;spacingLeft=4;spacingRight=4;overflow=hidden;rotatable=0;points=[[0,0.5],[1,0.5]];portConstraint=eastwest;whiteSpace=wrap;html=1;" vertex="1" parent="XcWfCShOmDu8Nu97XLVq-115">
          <mxGeometry y="320" width="450" height="26" as="geometry" />
        </mxCell>
        <mxCell id="XcWfCShOmDu8Nu97XLVq-129" value="+&amp;nbsp;criarEntidadePedidoItem&amp;nbsp;&lt;span style=&quot;background-color: initial;&quot;&gt;(Conexao,String): boolean&amp;nbsp;&amp;nbsp;&lt;/span&gt;" style="text;strokeColor=none;fillColor=none;align=left;verticalAlign=top;spacingLeft=4;spacingRight=4;overflow=hidden;rotatable=0;points=[[0,0.5],[1,0.5]];portConstraint=eastwest;whiteSpace=wrap;html=1;" vertex="1" parent="XcWfCShOmDu8Nu97XLVq-115">
          <mxGeometry y="346" width="450" height="26" as="geometry" />
        </mxCell>
        <mxCell id="XcWfCShOmDu8Nu97XLVq-130" value="+&amp;nbsp;entidadeExists&amp;nbsp;&lt;span style=&quot;background-color: initial;&quot;&gt;(Conexao,String,String): boolean&lt;/span&gt;" style="text;strokeColor=none;fillColor=none;align=left;verticalAlign=top;spacingLeft=4;spacingRight=4;overflow=hidden;rotatable=0;points=[[0,0.5],[1,0.5]];portConstraint=eastwest;whiteSpace=wrap;html=1;" vertex="1" parent="XcWfCShOmDu8Nu97XLVq-115">
          <mxGeometry y="372" width="450" height="26" as="geometry" />
        </mxCell>
        <mxCell id="XcWfCShOmDu8Nu97XLVq-131" value="+&amp;nbsp;atributoExists&amp;nbsp;&lt;span style=&quot;background-color: initial;&quot;&gt;(Conexao,String,String): boolean&amp;nbsp;&amp;nbsp;&lt;/span&gt;" style="text;strokeColor=none;fillColor=none;align=left;verticalAlign=top;spacingLeft=4;spacingRight=4;overflow=hidden;rotatable=0;points=[[0,0.5],[1,0.5]];portConstraint=eastwest;whiteSpace=wrap;html=1;" vertex="1" parent="XcWfCShOmDu8Nu97XLVq-115">
          <mxGeometry y="398" width="450" height="26" as="geometry" />
        </mxCell>
        <mxCell id="XcWfCShOmDu8Nu97XLVq-132" value="ClienteDAO" style="swimlane;fontStyle=1;align=center;verticalAlign=top;childLayout=stackLayout;horizontal=1;startSize=26;horizontalStack=0;resizeParent=1;resizeParentMax=0;resizeLast=0;collapsible=1;marginBottom=0;whiteSpace=wrap;html=1;" vertex="1" parent="1">
          <mxGeometry x="414" y="-1320" width="290" height="372" as="geometry" />
        </mxCell>
        <mxCell id="XcWfCShOmDu8Nu97XLVq-133" value="- conexao: Conexao" style="text;strokeColor=none;fillColor=none;align=left;verticalAlign=top;spacingLeft=4;spacingRight=4;overflow=hidden;rotatable=0;points=[[0,0.5],[1,0.5]];portConstraint=eastwest;whiteSpace=wrap;html=1;" vertex="1" parent="XcWfCShOmDu8Nu97XLVq-132">
          <mxGeometry y="26" width="290" height="26" as="geometry" />
        </mxCell>
        <mxCell id="XcWfCShOmDu8Nu97XLVq-152" value="- schema: String" style="text;strokeColor=none;fillColor=none;align=left;verticalAlign=top;spacingLeft=4;spacingRight=4;overflow=hidden;rotatable=0;points=[[0,0.5],[1,0.5]];portConstraint=eastwest;whiteSpace=wrap;html=1;" vertex="1" parent="XcWfCShOmDu8Nu97XLVq-132">
          <mxGeometry y="52" width="290" height="26" as="geometry" />
        </mxCell>
        <mxCell id="XcWfCShOmDu8Nu97XLVq-136" value="- pInclusao : PreparedStatement" style="text;strokeColor=none;fillColor=none;align=left;verticalAlign=top;spacingLeft=4;spacingRight=4;overflow=hidden;rotatable=0;points=[[0,0.5],[1,0.5]];portConstraint=eastwest;whiteSpace=wrap;html=1;" vertex="1" parent="XcWfCShOmDu8Nu97XLVq-132">
          <mxGeometry y="78" width="290" height="26" as="geometry" />
        </mxCell>
        <mxCell id="XcWfCShOmDu8Nu97XLVq-138" value="- pAlteracao: PreparedStatement" style="text;strokeColor=none;fillColor=none;align=left;verticalAlign=top;spacingLeft=4;spacingRight=4;overflow=hidden;rotatable=0;points=[[0,0.5],[1,0.5]];portConstraint=eastwest;whiteSpace=wrap;html=1;" vertex="1" parent="XcWfCShOmDu8Nu97XLVq-132">
          <mxGeometry y="104" width="290" height="26" as="geometry" />
        </mxCell>
        <mxCell id="XcWfCShOmDu8Nu97XLVq-139" value="- pExclusao: PreparedStatement" style="text;strokeColor=none;fillColor=none;align=left;verticalAlign=top;spacingLeft=4;spacingRight=4;overflow=hidden;rotatable=0;points=[[0,0.5],[1,0.5]];portConstraint=eastwest;whiteSpace=wrap;html=1;" vertex="1" parent="XcWfCShOmDu8Nu97XLVq-132">
          <mxGeometry y="130" width="290" height="26" as="geometry" />
        </mxCell>
        <mxCell id="XcWfCShOmDu8Nu97XLVq-134" value="" style="line;strokeWidth=1;fillColor=none;align=left;verticalAlign=middle;spacingTop=-1;spacingLeft=3;spacingRight=3;rotatable=0;labelPosition=right;points=[];portConstraint=eastwest;strokeColor=inherit;" vertex="1" parent="XcWfCShOmDu8Nu97XLVq-132">
          <mxGeometry y="156" width="290" height="8" as="geometry" />
        </mxCell>
        <mxCell id="XcWfCShOmDu8Nu97XLVq-135" value="+ ClienteDAO (Conexao, String)" style="text;strokeColor=none;fillColor=none;align=left;verticalAlign=top;spacingLeft=4;spacingRight=4;overflow=hidden;rotatable=0;points=[[0,0.5],[1,0.5]];portConstraint=eastwest;whiteSpace=wrap;html=1;" vertex="1" parent="XcWfCShOmDu8Nu97XLVq-132">
          <mxGeometry y="164" width="290" height="26" as="geometry" />
        </mxCell>
        <mxCell id="XcWfCShOmDu8Nu97XLVq-140" value="- prepararSqlExclusao ()" style="text;strokeColor=none;fillColor=none;align=left;verticalAlign=top;spacingLeft=4;spacingRight=4;overflow=hidden;rotatable=0;points=[[0,0.5],[1,0.5]];portConstraint=eastwest;whiteSpace=wrap;html=1;" vertex="1" parent="XcWfCShOmDu8Nu97XLVq-132">
          <mxGeometry y="190" width="290" height="26" as="geometry" />
        </mxCell>
        <mxCell id="XcWfCShOmDu8Nu97XLVq-141" value="- prepararSqlinclusao ()" style="text;strokeColor=none;fillColor=none;align=left;verticalAlign=top;spacingLeft=4;spacingRight=4;overflow=hidden;rotatable=0;points=[[0,0.5],[1,0.5]];portConstraint=eastwest;whiteSpace=wrap;html=1;" vertex="1" parent="XcWfCShOmDu8Nu97XLVq-132">
          <mxGeometry y="216" width="290" height="26" as="geometry" />
        </mxCell>
        <mxCell id="XcWfCShOmDu8Nu97XLVq-142" value="- prepararSqlAlteracao ()" style="text;strokeColor=none;fillColor=none;align=left;verticalAlign=top;spacingLeft=4;spacingRight=4;overflow=hidden;rotatable=0;points=[[0,0.5],[1,0.5]];portConstraint=eastwest;whiteSpace=wrap;html=1;" vertex="1" parent="XcWfCShOmDu8Nu97XLVq-132">
          <mxGeometry y="242" width="290" height="26" as="geometry" />
        </mxCell>
        <mxCell id="XcWfCShOmDu8Nu97XLVq-143" value="+ alterarCliente (Cliente): int" style="text;strokeColor=none;fillColor=none;align=left;verticalAlign=top;spacingLeft=4;spacingRight=4;overflow=hidden;rotatable=0;points=[[0,0.5],[1,0.5]];portConstraint=eastwest;whiteSpace=wrap;html=1;" vertex="1" parent="XcWfCShOmDu8Nu97XLVq-132">
          <mxGeometry y="268" width="290" height="26" as="geometry" />
        </mxCell>
        <mxCell id="XcWfCShOmDu8Nu97XLVq-144" value="+ incluirCliente (Cliente): int" style="text;strokeColor=none;fillColor=none;align=left;verticalAlign=top;spacingLeft=4;spacingRight=4;overflow=hidden;rotatable=0;points=[[0,0.5],[1,0.5]];portConstraint=eastwest;whiteSpace=wrap;html=1;" vertex="1" parent="XcWfCShOmDu8Nu97XLVq-132">
          <mxGeometry y="294" width="290" height="26" as="geometry" />
        </mxCell>
        <mxCell id="XcWfCShOmDu8Nu97XLVq-145" value="+ excluirCliente (Cliente): int" style="text;strokeColor=none;fillColor=none;align=left;verticalAlign=top;spacingLeft=4;spacingRight=4;overflow=hidden;rotatable=0;points=[[0,0.5],[1,0.5]];portConstraint=eastwest;whiteSpace=wrap;html=1;" vertex="1" parent="XcWfCShOmDu8Nu97XLVq-132">
          <mxGeometry y="320" width="290" height="26" as="geometry" />
        </mxCell>
        <mxCell id="XcWfCShOmDu8Nu97XLVq-146" value="+ carregarCliente (): ResultSet" style="text;strokeColor=none;fillColor=none;align=left;verticalAlign=top;spacingLeft=4;spacingRight=4;overflow=hidden;rotatable=0;points=[[0,0.5],[1,0.5]];portConstraint=eastwest;whiteSpace=wrap;html=1;" vertex="1" parent="XcWfCShOmDu8Nu97XLVq-132">
          <mxGeometry y="346" width="290" height="26" as="geometry" />
        </mxCell>
        <mxCell id="XcWfCShOmDu8Nu97XLVq-147" value="EmpresaDAO" style="swimlane;fontStyle=1;align=center;verticalAlign=top;childLayout=stackLayout;horizontal=1;startSize=26;horizontalStack=0;resizeParent=1;resizeParentMax=0;resizeLast=0;collapsible=1;marginBottom=0;whiteSpace=wrap;html=1;" vertex="1" parent="1">
          <mxGeometry x="1770" y="-1320" width="250" height="372" as="geometry" />
        </mxCell>
        <mxCell id="XcWfCShOmDu8Nu97XLVq-148" value="- conexao: Conexao" style="text;strokeColor=none;fillColor=none;align=left;verticalAlign=top;spacingLeft=4;spacingRight=4;overflow=hidden;rotatable=0;points=[[0,0.5],[1,0.5]];portConstraint=eastwest;whiteSpace=wrap;html=1;" vertex="1" parent="XcWfCShOmDu8Nu97XLVq-147">
          <mxGeometry y="26" width="250" height="26" as="geometry" />
        </mxCell>
        <mxCell id="XcWfCShOmDu8Nu97XLVq-153" value="- schema: String" style="text;strokeColor=none;fillColor=none;align=left;verticalAlign=top;spacingLeft=4;spacingRight=4;overflow=hidden;rotatable=0;points=[[0,0.5],[1,0.5]];portConstraint=eastwest;whiteSpace=wrap;html=1;" vertex="1" parent="XcWfCShOmDu8Nu97XLVq-147">
          <mxGeometry y="52" width="250" height="26" as="geometry" />
        </mxCell>
        <mxCell id="XcWfCShOmDu8Nu97XLVq-154" value="- pInclusao: PreparedStatement" style="text;strokeColor=none;fillColor=none;align=left;verticalAlign=top;spacingLeft=4;spacingRight=4;overflow=hidden;rotatable=0;points=[[0,0.5],[1,0.5]];portConstraint=eastwest;whiteSpace=wrap;html=1;" vertex="1" parent="XcWfCShOmDu8Nu97XLVq-147">
          <mxGeometry y="78" width="250" height="26" as="geometry" />
        </mxCell>
        <mxCell id="XcWfCShOmDu8Nu97XLVq-155" value="- pAlteracao: PreparedStatement" style="text;strokeColor=none;fillColor=none;align=left;verticalAlign=top;spacingLeft=4;spacingRight=4;overflow=hidden;rotatable=0;points=[[0,0.5],[1,0.5]];portConstraint=eastwest;whiteSpace=wrap;html=1;" vertex="1" parent="XcWfCShOmDu8Nu97XLVq-147">
          <mxGeometry y="104" width="250" height="26" as="geometry" />
        </mxCell>
        <mxCell id="XcWfCShOmDu8Nu97XLVq-156" value="- pExclusao: PreparedStatement" style="text;strokeColor=none;fillColor=none;align=left;verticalAlign=top;spacingLeft=4;spacingRight=4;overflow=hidden;rotatable=0;points=[[0,0.5],[1,0.5]];portConstraint=eastwest;whiteSpace=wrap;html=1;" vertex="1" parent="XcWfCShOmDu8Nu97XLVq-147">
          <mxGeometry y="130" width="250" height="26" as="geometry" />
        </mxCell>
        <mxCell id="XcWfCShOmDu8Nu97XLVq-149" value="" style="line;strokeWidth=1;fillColor=none;align=left;verticalAlign=middle;spacingTop=-1;spacingLeft=3;spacingRight=3;rotatable=0;labelPosition=right;points=[];portConstraint=eastwest;strokeColor=inherit;" vertex="1" parent="XcWfCShOmDu8Nu97XLVq-147">
          <mxGeometry y="156" width="250" height="8" as="geometry" />
        </mxCell>
        <mxCell id="XcWfCShOmDu8Nu97XLVq-150" value="+ EmpresaDAO (Conexao, String)" style="text;strokeColor=none;fillColor=none;align=left;verticalAlign=top;spacingLeft=4;spacingRight=4;overflow=hidden;rotatable=0;points=[[0,0.5],[1,0.5]];portConstraint=eastwest;whiteSpace=wrap;html=1;" vertex="1" parent="XcWfCShOmDu8Nu97XLVq-147">
          <mxGeometry y="164" width="250" height="26" as="geometry" />
        </mxCell>
        <mxCell id="XcWfCShOmDu8Nu97XLVq-157" value="- prepararSqlinclusao ()" style="text;strokeColor=none;fillColor=none;align=left;verticalAlign=top;spacingLeft=4;spacingRight=4;overflow=hidden;rotatable=0;points=[[0,0.5],[1,0.5]];portConstraint=eastwest;whiteSpace=wrap;html=1;" vertex="1" parent="XcWfCShOmDu8Nu97XLVq-147">
          <mxGeometry y="190" width="250" height="26" as="geometry" />
        </mxCell>
        <mxCell id="XcWfCShOmDu8Nu97XLVq-158" value="+ incluirEmpresa (Empresa) : int" style="text;strokeColor=none;fillColor=none;align=left;verticalAlign=top;spacingLeft=4;spacingRight=4;overflow=hidden;rotatable=0;points=[[0,0.5],[1,0.5]];portConstraint=eastwest;whiteSpace=wrap;html=1;" vertex="1" parent="XcWfCShOmDu8Nu97XLVq-147">
          <mxGeometry y="216" width="250" height="26" as="geometry" />
        </mxCell>
        <mxCell id="XcWfCShOmDu8Nu97XLVq-159" value="- prepararSqlAlteracao ()" style="text;strokeColor=none;fillColor=none;align=left;verticalAlign=top;spacingLeft=4;spacingRight=4;overflow=hidden;rotatable=0;points=[[0,0.5],[1,0.5]];portConstraint=eastwest;whiteSpace=wrap;html=1;" vertex="1" parent="XcWfCShOmDu8Nu97XLVq-147">
          <mxGeometry y="242" width="250" height="26" as="geometry" />
        </mxCell>
        <mxCell id="XcWfCShOmDu8Nu97XLVq-160" value="+ alterarEmpresa (Empresa) : int" style="text;strokeColor=none;fillColor=none;align=left;verticalAlign=top;spacingLeft=4;spacingRight=4;overflow=hidden;rotatable=0;points=[[0,0.5],[1,0.5]];portConstraint=eastwest;whiteSpace=wrap;html=1;" vertex="1" parent="XcWfCShOmDu8Nu97XLVq-147">
          <mxGeometry y="268" width="250" height="26" as="geometry" />
        </mxCell>
        <mxCell id="XcWfCShOmDu8Nu97XLVq-161" value="- prepararSqlExclusao ()" style="text;strokeColor=none;fillColor=none;align=left;verticalAlign=top;spacingLeft=4;spacingRight=4;overflow=hidden;rotatable=0;points=[[0,0.5],[1,0.5]];portConstraint=eastwest;whiteSpace=wrap;html=1;" vertex="1" parent="XcWfCShOmDu8Nu97XLVq-147">
          <mxGeometry y="294" width="250" height="26" as="geometry" />
        </mxCell>
        <mxCell id="XcWfCShOmDu8Nu97XLVq-162" value="+ excluirEmpresa (Empresa) : int" style="text;strokeColor=none;fillColor=none;align=left;verticalAlign=top;spacingLeft=4;spacingRight=4;overflow=hidden;rotatable=0;points=[[0,0.5],[1,0.5]];portConstraint=eastwest;whiteSpace=wrap;html=1;" vertex="1" parent="XcWfCShOmDu8Nu97XLVq-147">
          <mxGeometry y="320" width="250" height="26" as="geometry" />
        </mxCell>
        <mxCell id="XcWfCShOmDu8Nu97XLVq-163" value="+ carregarEmpresa () : ResultSet" style="text;strokeColor=none;fillColor=none;align=left;verticalAlign=top;spacingLeft=4;spacingRight=4;overflow=hidden;rotatable=0;points=[[0,0.5],[1,0.5]];portConstraint=eastwest;whiteSpace=wrap;html=1;" vertex="1" parent="XcWfCShOmDu8Nu97XLVq-147">
          <mxGeometry y="346" width="250" height="26" as="geometry" />
        </mxCell>
        <mxCell id="XcWfCShOmDu8Nu97XLVq-164" value="PedidoDAO" style="swimlane;fontStyle=1;align=center;verticalAlign=top;childLayout=stackLayout;horizontal=1;startSize=26;horizontalStack=0;resizeParent=1;resizeParentMax=0;resizeLast=0;collapsible=1;marginBottom=0;whiteSpace=wrap;html=1;" vertex="1" parent="1">
          <mxGeometry x="520" y="560" width="220" height="372" as="geometry" />
        </mxCell>
        <mxCell id="XcWfCShOmDu8Nu97XLVq-165" value="- conexao: Conexao" style="text;strokeColor=none;fillColor=none;align=left;verticalAlign=top;spacingLeft=4;spacingRight=4;overflow=hidden;rotatable=0;points=[[0,0.5],[1,0.5]];portConstraint=eastwest;whiteSpace=wrap;html=1;" vertex="1" parent="XcWfCShOmDu8Nu97XLVq-164">
          <mxGeometry y="26" width="220" height="26" as="geometry" />
        </mxCell>
        <mxCell id="XcWfCShOmDu8Nu97XLVq-168" value="- schema: String" style="text;strokeColor=none;fillColor=none;align=left;verticalAlign=top;spacingLeft=4;spacingRight=4;overflow=hidden;rotatable=0;points=[[0,0.5],[1,0.5]];portConstraint=eastwest;whiteSpace=wrap;html=1;" vertex="1" parent="XcWfCShOmDu8Nu97XLVq-164">
          <mxGeometry y="52" width="220" height="26" as="geometry" />
        </mxCell>
        <mxCell id="XcWfCShOmDu8Nu97XLVq-169" value="- pInclusao: PreparedStatement" style="text;strokeColor=none;fillColor=none;align=left;verticalAlign=top;spacingLeft=4;spacingRight=4;overflow=hidden;rotatable=0;points=[[0,0.5],[1,0.5]];portConstraint=eastwest;whiteSpace=wrap;html=1;" vertex="1" parent="XcWfCShOmDu8Nu97XLVq-164">
          <mxGeometry y="78" width="220" height="26" as="geometry" />
        </mxCell>
        <mxCell id="XcWfCShOmDu8Nu97XLVq-170" value="- pAlteracao: PreparedStatement" style="text;strokeColor=none;fillColor=none;align=left;verticalAlign=top;spacingLeft=4;spacingRight=4;overflow=hidden;rotatable=0;points=[[0,0.5],[1,0.5]];portConstraint=eastwest;whiteSpace=wrap;html=1;" vertex="1" parent="XcWfCShOmDu8Nu97XLVq-164">
          <mxGeometry y="104" width="220" height="26" as="geometry" />
        </mxCell>
        <mxCell id="XcWfCShOmDu8Nu97XLVq-171" value="- pExclusao: PreparedStatement" style="text;strokeColor=none;fillColor=none;align=left;verticalAlign=top;spacingLeft=4;spacingRight=4;overflow=hidden;rotatable=0;points=[[0,0.5],[1,0.5]];portConstraint=eastwest;whiteSpace=wrap;html=1;" vertex="1" parent="XcWfCShOmDu8Nu97XLVq-164">
          <mxGeometry y="130" width="220" height="26" as="geometry" />
        </mxCell>
        <mxCell id="XcWfCShOmDu8Nu97XLVq-166" value="" style="line;strokeWidth=1;fillColor=none;align=left;verticalAlign=middle;spacingTop=-1;spacingLeft=3;spacingRight=3;rotatable=0;labelPosition=right;points=[];portConstraint=eastwest;strokeColor=inherit;" vertex="1" parent="XcWfCShOmDu8Nu97XLVq-164">
          <mxGeometry y="156" width="220" height="8" as="geometry" />
        </mxCell>
        <mxCell id="XcWfCShOmDu8Nu97XLVq-167" value="+ PedidoDAO (Conexao, String)" style="text;strokeColor=none;fillColor=none;align=left;verticalAlign=top;spacingLeft=4;spacingRight=4;overflow=hidden;rotatable=0;points=[[0,0.5],[1,0.5]];portConstraint=eastwest;whiteSpace=wrap;html=1;" vertex="1" parent="XcWfCShOmDu8Nu97XLVq-164">
          <mxGeometry y="164" width="220" height="26" as="geometry" />
        </mxCell>
        <mxCell id="XcWfCShOmDu8Nu97XLVq-172" value="- prepararSqlinclusao ()" style="text;strokeColor=none;fillColor=none;align=left;verticalAlign=top;spacingLeft=4;spacingRight=4;overflow=hidden;rotatable=0;points=[[0,0.5],[1,0.5]];portConstraint=eastwest;whiteSpace=wrap;html=1;" vertex="1" parent="XcWfCShOmDu8Nu97XLVq-164">
          <mxGeometry y="190" width="220" height="26" as="geometry" />
        </mxCell>
        <mxCell id="XcWfCShOmDu8Nu97XLVq-173" value="+ incluirPedido (Pedido) : int" style="text;strokeColor=none;fillColor=none;align=left;verticalAlign=top;spacingLeft=4;spacingRight=4;overflow=hidden;rotatable=0;points=[[0,0.5],[1,0.5]];portConstraint=eastwest;whiteSpace=wrap;html=1;" vertex="1" parent="XcWfCShOmDu8Nu97XLVq-164">
          <mxGeometry y="216" width="220" height="26" as="geometry" />
        </mxCell>
        <mxCell id="XcWfCShOmDu8Nu97XLVq-174" value="- prepararSqlAlteracao ()" style="text;strokeColor=none;fillColor=none;align=left;verticalAlign=top;spacingLeft=4;spacingRight=4;overflow=hidden;rotatable=0;points=[[0,0.5],[1,0.5]];portConstraint=eastwest;whiteSpace=wrap;html=1;" vertex="1" parent="XcWfCShOmDu8Nu97XLVq-164">
          <mxGeometry y="242" width="220" height="26" as="geometry" />
        </mxCell>
        <mxCell id="XcWfCShOmDu8Nu97XLVq-175" value="+ alterarPedido (Pedido) : int" style="text;strokeColor=none;fillColor=none;align=left;verticalAlign=top;spacingLeft=4;spacingRight=4;overflow=hidden;rotatable=0;points=[[0,0.5],[1,0.5]];portConstraint=eastwest;whiteSpace=wrap;html=1;" vertex="1" parent="XcWfCShOmDu8Nu97XLVq-164">
          <mxGeometry y="268" width="220" height="26" as="geometry" />
        </mxCell>
        <mxCell id="XcWfCShOmDu8Nu97XLVq-176" value="- prepararSqlExclusao ()" style="text;strokeColor=none;fillColor=none;align=left;verticalAlign=top;spacingLeft=4;spacingRight=4;overflow=hidden;rotatable=0;points=[[0,0.5],[1,0.5]];portConstraint=eastwest;whiteSpace=wrap;html=1;" vertex="1" parent="XcWfCShOmDu8Nu97XLVq-164">
          <mxGeometry y="294" width="220" height="26" as="geometry" />
        </mxCell>
        <mxCell id="XcWfCShOmDu8Nu97XLVq-177" value="+ excluirPedido (Pedido) : int" style="text;strokeColor=none;fillColor=none;align=left;verticalAlign=top;spacingLeft=4;spacingRight=4;overflow=hidden;rotatable=0;points=[[0,0.5],[1,0.5]];portConstraint=eastwest;whiteSpace=wrap;html=1;" vertex="1" parent="XcWfCShOmDu8Nu97XLVq-164">
          <mxGeometry y="320" width="220" height="26" as="geometry" />
        </mxCell>
        <mxCell id="XcWfCShOmDu8Nu97XLVq-178" value="+ carregarPedido () : ResultSet" style="text;strokeColor=none;fillColor=none;align=left;verticalAlign=top;spacingLeft=4;spacingRight=4;overflow=hidden;rotatable=0;points=[[0,0.5],[1,0.5]];portConstraint=eastwest;whiteSpace=wrap;html=1;" vertex="1" parent="XcWfCShOmDu8Nu97XLVq-164">
          <mxGeometry y="346" width="220" height="26" as="geometry" />
        </mxCell>
        <mxCell id="XcWfCShOmDu8Nu97XLVq-179" value="PedidoItemDAO" style="swimlane;fontStyle=1;align=center;verticalAlign=top;childLayout=stackLayout;horizontal=1;startSize=26;horizontalStack=0;resizeParent=1;resizeParentMax=0;resizeLast=0;collapsible=1;marginBottom=0;whiteSpace=wrap;html=1;" vertex="1" parent="1">
          <mxGeometry x="449" y="-468.00000000000006" width="220" height="372" as="geometry" />
        </mxCell>
        <mxCell id="XcWfCShOmDu8Nu97XLVq-180" value="- conexao: Conexao" style="text;strokeColor=none;fillColor=none;align=left;verticalAlign=top;spacingLeft=4;spacingRight=4;overflow=hidden;rotatable=0;points=[[0,0.5],[1,0.5]];portConstraint=eastwest;whiteSpace=wrap;html=1;" vertex="1" parent="XcWfCShOmDu8Nu97XLVq-179">
          <mxGeometry y="26" width="220" height="26" as="geometry" />
        </mxCell>
        <mxCell id="XcWfCShOmDu8Nu97XLVq-181" value="- schema: String" style="text;strokeColor=none;fillColor=none;align=left;verticalAlign=top;spacingLeft=4;spacingRight=4;overflow=hidden;rotatable=0;points=[[0,0.5],[1,0.5]];portConstraint=eastwest;whiteSpace=wrap;html=1;" vertex="1" parent="XcWfCShOmDu8Nu97XLVq-179">
          <mxGeometry y="52" width="220" height="26" as="geometry" />
        </mxCell>
        <mxCell id="XcWfCShOmDu8Nu97XLVq-182" value="- pInclusao: PreparedStatement" style="text;strokeColor=none;fillColor=none;align=left;verticalAlign=top;spacingLeft=4;spacingRight=4;overflow=hidden;rotatable=0;points=[[0,0.5],[1,0.5]];portConstraint=eastwest;whiteSpace=wrap;html=1;" vertex="1" parent="XcWfCShOmDu8Nu97XLVq-179">
          <mxGeometry y="78" width="220" height="26" as="geometry" />
        </mxCell>
        <mxCell id="XcWfCShOmDu8Nu97XLVq-183" value="- pAlteracao: PreparedStatement" style="text;strokeColor=none;fillColor=none;align=left;verticalAlign=top;spacingLeft=4;spacingRight=4;overflow=hidden;rotatable=0;points=[[0,0.5],[1,0.5]];portConstraint=eastwest;whiteSpace=wrap;html=1;" vertex="1" parent="XcWfCShOmDu8Nu97XLVq-179">
          <mxGeometry y="104" width="220" height="26" as="geometry" />
        </mxCell>
        <mxCell id="XcWfCShOmDu8Nu97XLVq-184" value="- pExclusao: PreparedStatement" style="text;strokeColor=none;fillColor=none;align=left;verticalAlign=top;spacingLeft=4;spacingRight=4;overflow=hidden;rotatable=0;points=[[0,0.5],[1,0.5]];portConstraint=eastwest;whiteSpace=wrap;html=1;" vertex="1" parent="XcWfCShOmDu8Nu97XLVq-179">
          <mxGeometry y="130" width="220" height="26" as="geometry" />
        </mxCell>
        <mxCell id="XcWfCShOmDu8Nu97XLVq-185" value="" style="line;strokeWidth=1;fillColor=none;align=left;verticalAlign=middle;spacingTop=-1;spacingLeft=3;spacingRight=3;rotatable=0;labelPosition=right;points=[];portConstraint=eastwest;strokeColor=inherit;" vertex="1" parent="XcWfCShOmDu8Nu97XLVq-179">
          <mxGeometry y="156" width="220" height="8" as="geometry" />
        </mxCell>
        <mxCell id="XcWfCShOmDu8Nu97XLVq-186" value="+ PedidoItemDAO (Conexao, String)" style="text;strokeColor=none;fillColor=none;align=left;verticalAlign=top;spacingLeft=4;spacingRight=4;overflow=hidden;rotatable=0;points=[[0,0.5],[1,0.5]];portConstraint=eastwest;whiteSpace=wrap;html=1;" vertex="1" parent="XcWfCShOmDu8Nu97XLVq-179">
          <mxGeometry y="164" width="220" height="26" as="geometry" />
        </mxCell>
        <mxCell id="XcWfCShOmDu8Nu97XLVq-187" value="- prepararSqlinclusao ()" style="text;strokeColor=none;fillColor=none;align=left;verticalAlign=top;spacingLeft=4;spacingRight=4;overflow=hidden;rotatable=0;points=[[0,0.5],[1,0.5]];portConstraint=eastwest;whiteSpace=wrap;html=1;" vertex="1" parent="XcWfCShOmDu8Nu97XLVq-179">
          <mxGeometry y="190" width="220" height="26" as="geometry" />
        </mxCell>
        <mxCell id="XcWfCShOmDu8Nu97XLVq-188" value="+ incluirPedidoItem (PedidoItem) : int" style="text;strokeColor=none;fillColor=none;align=left;verticalAlign=top;spacingLeft=4;spacingRight=4;overflow=hidden;rotatable=0;points=[[0,0.5],[1,0.5]];portConstraint=eastwest;whiteSpace=wrap;html=1;" vertex="1" parent="XcWfCShOmDu8Nu97XLVq-179">
          <mxGeometry y="216" width="220" height="26" as="geometry" />
        </mxCell>
        <mxCell id="XcWfCShOmDu8Nu97XLVq-189" value="- prepararSqlAlteracao ()" style="text;strokeColor=none;fillColor=none;align=left;verticalAlign=top;spacingLeft=4;spacingRight=4;overflow=hidden;rotatable=0;points=[[0,0.5],[1,0.5]];portConstraint=eastwest;whiteSpace=wrap;html=1;" vertex="1" parent="XcWfCShOmDu8Nu97XLVq-179">
          <mxGeometry y="242" width="220" height="26" as="geometry" />
        </mxCell>
        <mxCell id="XcWfCShOmDu8Nu97XLVq-190" value="+ alterarPedidoItem (PedidoItem) : int" style="text;strokeColor=none;fillColor=none;align=left;verticalAlign=top;spacingLeft=4;spacingRight=4;overflow=hidden;rotatable=0;points=[[0,0.5],[1,0.5]];portConstraint=eastwest;whiteSpace=wrap;html=1;" vertex="1" parent="XcWfCShOmDu8Nu97XLVq-179">
          <mxGeometry y="268" width="220" height="26" as="geometry" />
        </mxCell>
        <mxCell id="XcWfCShOmDu8Nu97XLVq-191" value="- prepararSqlExclusao ()" style="text;strokeColor=none;fillColor=none;align=left;verticalAlign=top;spacingLeft=4;spacingRight=4;overflow=hidden;rotatable=0;points=[[0,0.5],[1,0.5]];portConstraint=eastwest;whiteSpace=wrap;html=1;" vertex="1" parent="XcWfCShOmDu8Nu97XLVq-179">
          <mxGeometry y="294" width="220" height="26" as="geometry" />
        </mxCell>
        <mxCell id="XcWfCShOmDu8Nu97XLVq-192" value="+ excluirPedidoItem (PedidoItem): int" style="text;strokeColor=none;fillColor=none;align=left;verticalAlign=top;spacingLeft=4;spacingRight=4;overflow=hidden;rotatable=0;points=[[0,0.5],[1,0.5]];portConstraint=eastwest;whiteSpace=wrap;html=1;" vertex="1" parent="XcWfCShOmDu8Nu97XLVq-179">
          <mxGeometry y="320" width="220" height="26" as="geometry" />
        </mxCell>
        <mxCell id="XcWfCShOmDu8Nu97XLVq-193" value="+ carregarPedidoItem (): ResultSet" style="text;strokeColor=none;fillColor=none;align=left;verticalAlign=top;spacingLeft=4;spacingRight=4;overflow=hidden;rotatable=0;points=[[0,0.5],[1,0.5]];portConstraint=eastwest;whiteSpace=wrap;html=1;" vertex="1" parent="XcWfCShOmDu8Nu97XLVq-179">
          <mxGeometry y="346" width="220" height="26" as="geometry" />
        </mxCell>
        <mxCell id="XcWfCShOmDu8Nu97XLVq-194" value="ProdemprDAO" style="swimlane;fontStyle=1;align=center;verticalAlign=top;childLayout=stackLayout;horizontal=1;startSize=26;horizontalStack=0;resizeParent=1;resizeParentMax=0;resizeLast=0;collapsible=1;marginBottom=0;whiteSpace=wrap;html=1;" vertex="1" parent="1">
          <mxGeometry x="1640" y="560" width="220" height="376" as="geometry" />
        </mxCell>
        <mxCell id="XcWfCShOmDu8Nu97XLVq-195" value="- conexao: Conexao" style="text;strokeColor=none;fillColor=none;align=left;verticalAlign=top;spacingLeft=4;spacingRight=4;overflow=hidden;rotatable=0;points=[[0,0.5],[1,0.5]];portConstraint=eastwest;whiteSpace=wrap;html=1;" vertex="1" parent="XcWfCShOmDu8Nu97XLVq-194">
          <mxGeometry y="26" width="220" height="26" as="geometry" />
        </mxCell>
        <mxCell id="XcWfCShOmDu8Nu97XLVq-196" value="- schema: String" style="text;strokeColor=none;fillColor=none;align=left;verticalAlign=top;spacingLeft=4;spacingRight=4;overflow=hidden;rotatable=0;points=[[0,0.5],[1,0.5]];portConstraint=eastwest;whiteSpace=wrap;html=1;" vertex="1" parent="XcWfCShOmDu8Nu97XLVq-194">
          <mxGeometry y="52" width="220" height="26" as="geometry" />
        </mxCell>
        <mxCell id="XcWfCShOmDu8Nu97XLVq-197" value="- pInclusao: PreparedStatement" style="text;strokeColor=none;fillColor=none;align=left;verticalAlign=top;spacingLeft=4;spacingRight=4;overflow=hidden;rotatable=0;points=[[0,0.5],[1,0.5]];portConstraint=eastwest;whiteSpace=wrap;html=1;" vertex="1" parent="XcWfCShOmDu8Nu97XLVq-194">
          <mxGeometry y="78" width="220" height="26" as="geometry" />
        </mxCell>
        <mxCell id="XcWfCShOmDu8Nu97XLVq-198" value="- pAlteracao: PreparedStatement" style="text;strokeColor=none;fillColor=none;align=left;verticalAlign=top;spacingLeft=4;spacingRight=4;overflow=hidden;rotatable=0;points=[[0,0.5],[1,0.5]];portConstraint=eastwest;whiteSpace=wrap;html=1;" vertex="1" parent="XcWfCShOmDu8Nu97XLVq-194">
          <mxGeometry y="104" width="220" height="26" as="geometry" />
        </mxCell>
        <mxCell id="XcWfCShOmDu8Nu97XLVq-199" value="- pExclusao: PreparedStatement" style="text;strokeColor=none;fillColor=none;align=left;verticalAlign=top;spacingLeft=4;spacingRight=4;overflow=hidden;rotatable=0;points=[[0,0.5],[1,0.5]];portConstraint=eastwest;whiteSpace=wrap;html=1;" vertex="1" parent="XcWfCShOmDu8Nu97XLVq-194">
          <mxGeometry y="130" width="220" height="26" as="geometry" />
        </mxCell>
        <mxCell id="XcWfCShOmDu8Nu97XLVq-200" value="" style="line;strokeWidth=1;fillColor=none;align=left;verticalAlign=middle;spacingTop=-1;spacingLeft=3;spacingRight=3;rotatable=0;labelPosition=right;points=[];portConstraint=eastwest;strokeColor=inherit;" vertex="1" parent="XcWfCShOmDu8Nu97XLVq-194">
          <mxGeometry y="156" width="220" height="8" as="geometry" />
        </mxCell>
        <mxCell id="XcWfCShOmDu8Nu97XLVq-201" value="+ ProdEmprDAO (Conexao, String)" style="text;strokeColor=none;fillColor=none;align=left;verticalAlign=top;spacingLeft=4;spacingRight=4;overflow=hidden;rotatable=0;points=[[0,0.5],[1,0.5]];portConstraint=eastwest;whiteSpace=wrap;html=1;" vertex="1" parent="XcWfCShOmDu8Nu97XLVq-194">
          <mxGeometry y="164" width="220" height="26" as="geometry" />
        </mxCell>
        <mxCell id="XcWfCShOmDu8Nu97XLVq-202" value="- prepararSqlInclusao ()" style="text;strokeColor=none;fillColor=none;align=left;verticalAlign=top;spacingLeft=4;spacingRight=4;overflow=hidden;rotatable=0;points=[[0,0.5],[1,0.5]];portConstraint=eastwest;whiteSpace=wrap;html=1;" vertex="1" parent="XcWfCShOmDu8Nu97XLVq-194">
          <mxGeometry y="190" width="220" height="30" as="geometry" />
        </mxCell>
        <mxCell id="XcWfCShOmDu8Nu97XLVq-203" value="+ incluirProdEmpr (ProdEmpr) : int" style="text;strokeColor=none;fillColor=none;align=left;verticalAlign=top;spacingLeft=4;spacingRight=4;overflow=hidden;rotatable=0;points=[[0,0.5],[1,0.5]];portConstraint=eastwest;whiteSpace=wrap;html=1;" vertex="1" parent="XcWfCShOmDu8Nu97XLVq-194">
          <mxGeometry y="220" width="220" height="26" as="geometry" />
        </mxCell>
        <mxCell id="XcWfCShOmDu8Nu97XLVq-204" value="- prepararSqlAlteracao ()" style="text;strokeColor=none;fillColor=none;align=left;verticalAlign=top;spacingLeft=4;spacingRight=4;overflow=hidden;rotatable=0;points=[[0,0.5],[1,0.5]];portConstraint=eastwest;whiteSpace=wrap;html=1;" vertex="1" parent="XcWfCShOmDu8Nu97XLVq-194">
          <mxGeometry y="246" width="220" height="26" as="geometry" />
        </mxCell>
        <mxCell id="XcWfCShOmDu8Nu97XLVq-205" value="+ alterarProdEmpr (ProdEmpr) : int" style="text;strokeColor=none;fillColor=none;align=left;verticalAlign=top;spacingLeft=4;spacingRight=4;overflow=hidden;rotatable=0;points=[[0,0.5],[1,0.5]];portConstraint=eastwest;whiteSpace=wrap;html=1;" vertex="1" parent="XcWfCShOmDu8Nu97XLVq-194">
          <mxGeometry y="272" width="220" height="26" as="geometry" />
        </mxCell>
        <mxCell id="XcWfCShOmDu8Nu97XLVq-206" value="- prepararSqlExclusao ()" style="text;strokeColor=none;fillColor=none;align=left;verticalAlign=top;spacingLeft=4;spacingRight=4;overflow=hidden;rotatable=0;points=[[0,0.5],[1,0.5]];portConstraint=eastwest;whiteSpace=wrap;html=1;" vertex="1" parent="XcWfCShOmDu8Nu97XLVq-194">
          <mxGeometry y="298" width="220" height="26" as="geometry" />
        </mxCell>
        <mxCell id="XcWfCShOmDu8Nu97XLVq-207" value="+ excluirProdEmpr (ProdEmpr) : int" style="text;strokeColor=none;fillColor=none;align=left;verticalAlign=top;spacingLeft=4;spacingRight=4;overflow=hidden;rotatable=0;points=[[0,0.5],[1,0.5]];portConstraint=eastwest;whiteSpace=wrap;html=1;" vertex="1" parent="XcWfCShOmDu8Nu97XLVq-194">
          <mxGeometry y="324" width="220" height="26" as="geometry" />
        </mxCell>
        <mxCell id="XcWfCShOmDu8Nu97XLVq-208" value="+ carregarProdEmpr () : ResultSet" style="text;strokeColor=none;fillColor=none;align=left;verticalAlign=top;spacingLeft=4;spacingRight=4;overflow=hidden;rotatable=0;points=[[0,0.5],[1,0.5]];portConstraint=eastwest;whiteSpace=wrap;html=1;" vertex="1" parent="XcWfCShOmDu8Nu97XLVq-194">
          <mxGeometry y="350" width="220" height="26" as="geometry" />
        </mxCell>
        <mxCell id="XcWfCShOmDu8Nu97XLVq-210" value="ProdutoDAO" style="swimlane;fontStyle=1;align=center;verticalAlign=top;childLayout=stackLayout;horizontal=1;startSize=26;horizontalStack=0;resizeParent=1;resizeParentMax=0;resizeLast=0;collapsible=1;marginBottom=0;whiteSpace=wrap;html=1;" vertex="1" parent="1">
          <mxGeometry x="1850" y="-546" width="220" height="376" as="geometry" />
        </mxCell>
        <mxCell id="XcWfCShOmDu8Nu97XLVq-211" value="- conexao: Conexao" style="text;strokeColor=none;fillColor=none;align=left;verticalAlign=top;spacingLeft=4;spacingRight=4;overflow=hidden;rotatable=0;points=[[0,0.5],[1,0.5]];portConstraint=eastwest;whiteSpace=wrap;html=1;" vertex="1" parent="XcWfCShOmDu8Nu97XLVq-210">
          <mxGeometry y="26" width="220" height="26" as="geometry" />
        </mxCell>
        <mxCell id="XcWfCShOmDu8Nu97XLVq-212" value="- schema: String" style="text;strokeColor=none;fillColor=none;align=left;verticalAlign=top;spacingLeft=4;spacingRight=4;overflow=hidden;rotatable=0;points=[[0,0.5],[1,0.5]];portConstraint=eastwest;whiteSpace=wrap;html=1;" vertex="1" parent="XcWfCShOmDu8Nu97XLVq-210">
          <mxGeometry y="52" width="220" height="26" as="geometry" />
        </mxCell>
        <mxCell id="XcWfCShOmDu8Nu97XLVq-213" value="- pInclusao: PreparedStatement" style="text;strokeColor=none;fillColor=none;align=left;verticalAlign=top;spacingLeft=4;spacingRight=4;overflow=hidden;rotatable=0;points=[[0,0.5],[1,0.5]];portConstraint=eastwest;whiteSpace=wrap;html=1;" vertex="1" parent="XcWfCShOmDu8Nu97XLVq-210">
          <mxGeometry y="78" width="220" height="26" as="geometry" />
        </mxCell>
        <mxCell id="XcWfCShOmDu8Nu97XLVq-214" value="- pAlteracao: PreparedStatement" style="text;strokeColor=none;fillColor=none;align=left;verticalAlign=top;spacingLeft=4;spacingRight=4;overflow=hidden;rotatable=0;points=[[0,0.5],[1,0.5]];portConstraint=eastwest;whiteSpace=wrap;html=1;" vertex="1" parent="XcWfCShOmDu8Nu97XLVq-210">
          <mxGeometry y="104" width="220" height="26" as="geometry" />
        </mxCell>
        <mxCell id="XcWfCShOmDu8Nu97XLVq-215" value="- pExclusao: PreparedStatement" style="text;strokeColor=none;fillColor=none;align=left;verticalAlign=top;spacingLeft=4;spacingRight=4;overflow=hidden;rotatable=0;points=[[0,0.5],[1,0.5]];portConstraint=eastwest;whiteSpace=wrap;html=1;" vertex="1" parent="XcWfCShOmDu8Nu97XLVq-210">
          <mxGeometry y="130" width="220" height="26" as="geometry" />
        </mxCell>
        <mxCell id="XcWfCShOmDu8Nu97XLVq-216" value="" style="line;strokeWidth=1;fillColor=none;align=left;verticalAlign=middle;spacingTop=-1;spacingLeft=3;spacingRight=3;rotatable=0;labelPosition=right;points=[];portConstraint=eastwest;strokeColor=inherit;" vertex="1" parent="XcWfCShOmDu8Nu97XLVq-210">
          <mxGeometry y="156" width="220" height="8" as="geometry" />
        </mxCell>
        <mxCell id="XcWfCShOmDu8Nu97XLVq-217" value="+&amp;nbsp;ProdutoDAO (Conexao, String)" style="text;strokeColor=none;fillColor=none;align=left;verticalAlign=top;spacingLeft=4;spacingRight=4;overflow=hidden;rotatable=0;points=[[0,0.5],[1,0.5]];portConstraint=eastwest;whiteSpace=wrap;html=1;" vertex="1" parent="XcWfCShOmDu8Nu97XLVq-210">
          <mxGeometry y="164" width="220" height="26" as="geometry" />
        </mxCell>
        <mxCell id="XcWfCShOmDu8Nu97XLVq-218" value="- prepararSqlinclusao ()" style="text;strokeColor=none;fillColor=none;align=left;verticalAlign=top;spacingLeft=4;spacingRight=4;overflow=hidden;rotatable=0;points=[[0,0.5],[1,0.5]];portConstraint=eastwest;whiteSpace=wrap;html=1;" vertex="1" parent="XcWfCShOmDu8Nu97XLVq-210">
          <mxGeometry y="190" width="220" height="30" as="geometry" />
        </mxCell>
        <mxCell id="XcWfCShOmDu8Nu97XLVq-219" value="+ incluirProduto (Produto): int" style="text;strokeColor=none;fillColor=none;align=left;verticalAlign=top;spacingLeft=4;spacingRight=4;overflow=hidden;rotatable=0;points=[[0,0.5],[1,0.5]];portConstraint=eastwest;whiteSpace=wrap;html=1;" vertex="1" parent="XcWfCShOmDu8Nu97XLVq-210">
          <mxGeometry y="220" width="220" height="26" as="geometry" />
        </mxCell>
        <mxCell id="XcWfCShOmDu8Nu97XLVq-220" value="- prepararSqlAlteracao ()" style="text;strokeColor=none;fillColor=none;align=left;verticalAlign=top;spacingLeft=4;spacingRight=4;overflow=hidden;rotatable=0;points=[[0,0.5],[1,0.5]];portConstraint=eastwest;whiteSpace=wrap;html=1;" vertex="1" parent="XcWfCShOmDu8Nu97XLVq-210">
          <mxGeometry y="246" width="220" height="26" as="geometry" />
        </mxCell>
        <mxCell id="XcWfCShOmDu8Nu97XLVq-221" value="+ alterarProduto (Produto): int" style="text;strokeColor=none;fillColor=none;align=left;verticalAlign=top;spacingLeft=4;spacingRight=4;overflow=hidden;rotatable=0;points=[[0,0.5],[1,0.5]];portConstraint=eastwest;whiteSpace=wrap;html=1;" vertex="1" parent="XcWfCShOmDu8Nu97XLVq-210">
          <mxGeometry y="272" width="220" height="26" as="geometry" />
        </mxCell>
        <mxCell id="XcWfCShOmDu8Nu97XLVq-222" value="- prepararSqlExclusao ()" style="text;strokeColor=none;fillColor=none;align=left;verticalAlign=top;spacingLeft=4;spacingRight=4;overflow=hidden;rotatable=0;points=[[0,0.5],[1,0.5]];portConstraint=eastwest;whiteSpace=wrap;html=1;" vertex="1" parent="XcWfCShOmDu8Nu97XLVq-210">
          <mxGeometry y="298" width="220" height="26" as="geometry" />
        </mxCell>
        <mxCell id="XcWfCShOmDu8Nu97XLVq-223" value="+ excluirProduto (Produto): int" style="text;strokeColor=none;fillColor=none;align=left;verticalAlign=top;spacingLeft=4;spacingRight=4;overflow=hidden;rotatable=0;points=[[0,0.5],[1,0.5]];portConstraint=eastwest;whiteSpace=wrap;html=1;" vertex="1" parent="XcWfCShOmDu8Nu97XLVq-210">
          <mxGeometry y="324" width="220" height="26" as="geometry" />
        </mxCell>
        <mxCell id="XcWfCShOmDu8Nu97XLVq-224" value="+ carregarProduto&amp;nbsp;() : ResultSet" style="text;strokeColor=none;fillColor=none;align=left;verticalAlign=top;spacingLeft=4;spacingRight=4;overflow=hidden;rotatable=0;points=[[0,0.5],[1,0.5]];portConstraint=eastwest;whiteSpace=wrap;html=1;" vertex="1" parent="XcWfCShOmDu8Nu97XLVq-210">
          <mxGeometry y="350" width="220" height="26" as="geometry" />
        </mxCell>
        <mxCell id="XcWfCShOmDu8Nu97XLVq-225" value="QueryDAO" style="swimlane;fontStyle=1;align=center;verticalAlign=top;childLayout=stackLayout;horizontal=1;startSize=26;horizontalStack=0;resizeParent=1;resizeParentMax=0;resizeLast=0;collapsible=1;marginBottom=0;whiteSpace=wrap;html=1;" vertex="1" parent="1">
          <mxGeometry x="1121" y="-1670" width="240" height="350" as="geometry" />
        </mxCell>
        <mxCell id="XcWfCShOmDu8Nu97XLVq-226" value="- conexao: Conexao" style="text;strokeColor=none;fillColor=none;align=left;verticalAlign=top;spacingLeft=4;spacingRight=4;overflow=hidden;rotatable=0;points=[[0,0.5],[1,0.5]];portConstraint=eastwest;whiteSpace=wrap;html=1;" vertex="1" parent="XcWfCShOmDu8Nu97XLVq-225">
          <mxGeometry y="26" width="240" height="26" as="geometry" />
        </mxCell>
        <mxCell id="XcWfCShOmDu8Nu97XLVq-227" value="- schema: String" style="text;strokeColor=none;fillColor=none;align=left;verticalAlign=top;spacingLeft=4;spacingRight=4;overflow=hidden;rotatable=0;points=[[0,0.5],[1,0.5]];portConstraint=eastwest;whiteSpace=wrap;html=1;" vertex="1" parent="XcWfCShOmDu8Nu97XLVq-225">
          <mxGeometry y="52" width="240" height="26" as="geometry" />
        </mxCell>
        <mxCell id="XcWfCShOmDu8Nu97XLVq-228" value="- pSelectCliente: PreparedStatement" style="text;strokeColor=none;fillColor=none;align=left;verticalAlign=top;spacingLeft=4;spacingRight=4;overflow=hidden;rotatable=0;points=[[0,0.5],[1,0.5]];portConstraint=eastwest;whiteSpace=wrap;html=1;" vertex="1" parent="XcWfCShOmDu8Nu97XLVq-225">
          <mxGeometry y="78" width="240" height="26" as="geometry" />
        </mxCell>
        <mxCell id="XcWfCShOmDu8Nu97XLVq-229" value="- pSelectPedido: PreparedStatement" style="text;strokeColor=none;fillColor=none;align=left;verticalAlign=top;spacingLeft=4;spacingRight=4;overflow=hidden;rotatable=0;points=[[0,0.5],[1,0.5]];portConstraint=eastwest;whiteSpace=wrap;html=1;" vertex="1" parent="XcWfCShOmDu8Nu97XLVq-225">
          <mxGeometry y="104" width="240" height="26" as="geometry" />
        </mxCell>
        <mxCell id="XcWfCShOmDu8Nu97XLVq-230" value="- pSelectProduto: PreparedStatement" style="text;strokeColor=none;fillColor=none;align=left;verticalAlign=top;spacingLeft=4;spacingRight=4;overflow=hidden;rotatable=0;points=[[0,0.5],[1,0.5]];portConstraint=eastwest;whiteSpace=wrap;html=1;" vertex="1" parent="XcWfCShOmDu8Nu97XLVq-225">
          <mxGeometry y="130" width="240" height="26" as="geometry" />
        </mxCell>
        <mxCell id="XcWfCShOmDu8Nu97XLVq-231" value="" style="line;strokeWidth=1;fillColor=none;align=left;verticalAlign=middle;spacingTop=-1;spacingLeft=3;spacingRight=3;rotatable=0;labelPosition=right;points=[];portConstraint=eastwest;strokeColor=inherit;" vertex="1" parent="XcWfCShOmDu8Nu97XLVq-225">
          <mxGeometry y="156" width="240" height="8" as="geometry" />
        </mxCell>
        <mxCell id="XcWfCShOmDu8Nu97XLVq-232" value="+ QueryDAO (Conexao, String)" style="text;strokeColor=none;fillColor=none;align=left;verticalAlign=top;spacingLeft=4;spacingRight=4;overflow=hidden;rotatable=0;points=[[0,0.5],[1,0.5]];portConstraint=eastwest;whiteSpace=wrap;html=1;" vertex="1" parent="XcWfCShOmDu8Nu97XLVq-225">
          <mxGeometry y="164" width="240" height="26" as="geometry" />
        </mxCell>
        <mxCell id="XcWfCShOmDu8Nu97XLVq-233" value="- prepararSqlCliente ()" style="text;strokeColor=none;fillColor=none;align=left;verticalAlign=top;spacingLeft=4;spacingRight=4;overflow=hidden;rotatable=0;points=[[0,0.5],[1,0.5]];portConstraint=eastwest;whiteSpace=wrap;html=1;" vertex="1" parent="XcWfCShOmDu8Nu97XLVq-225">
          <mxGeometry y="190" width="240" height="30" as="geometry" />
        </mxCell>
        <mxCell id="XcWfCShOmDu8Nu97XLVq-235" value="- prepararSqlPedido ()" style="text;strokeColor=none;fillColor=none;align=left;verticalAlign=top;spacingLeft=4;spacingRight=4;overflow=hidden;rotatable=0;points=[[0,0.5],[1,0.5]];portConstraint=eastwest;whiteSpace=wrap;html=1;" vertex="1" parent="XcWfCShOmDu8Nu97XLVq-225">
          <mxGeometry y="220" width="240" height="26" as="geometry" />
        </mxCell>
        <mxCell id="XcWfCShOmDu8Nu97XLVq-237" value="- prepararSqlProduto ()" style="text;strokeColor=none;fillColor=none;align=left;verticalAlign=top;spacingLeft=4;spacingRight=4;overflow=hidden;rotatable=0;points=[[0,0.5],[1,0.5]];portConstraint=eastwest;whiteSpace=wrap;html=1;" vertex="1" parent="XcWfCShOmDu8Nu97XLVq-225">
          <mxGeometry y="246" width="240" height="26" as="geometry" />
        </mxCell>
        <mxCell id="XcWfCShOmDu8Nu97XLVq-238" value="+ selectCliente (Cliente): int" style="text;strokeColor=none;fillColor=none;align=left;verticalAlign=top;spacingLeft=4;spacingRight=4;overflow=hidden;rotatable=0;points=[[0,0.5],[1,0.5]];portConstraint=eastwest;whiteSpace=wrap;html=1;" vertex="1" parent="XcWfCShOmDu8Nu97XLVq-225">
          <mxGeometry y="272" width="240" height="26" as="geometry" />
        </mxCell>
        <mxCell id="XcWfCShOmDu8Nu97XLVq-240" value="+ selectProduto (Produto): int" style="text;strokeColor=none;fillColor=none;align=left;verticalAlign=top;spacingLeft=4;spacingRight=4;overflow=hidden;rotatable=0;points=[[0,0.5],[1,0.5]];portConstraint=eastwest;whiteSpace=wrap;html=1;" vertex="1" parent="XcWfCShOmDu8Nu97XLVq-225">
          <mxGeometry y="298" width="240" height="26" as="geometry" />
        </mxCell>
        <mxCell id="XcWfCShOmDu8Nu97XLVq-241" value="+ selectPedido (Pedido): int" style="text;strokeColor=none;fillColor=none;align=left;verticalAlign=top;spacingLeft=4;spacingRight=4;overflow=hidden;rotatable=0;points=[[0,0.5],[1,0.5]];portConstraint=eastwest;whiteSpace=wrap;html=1;" vertex="1" parent="XcWfCShOmDu8Nu97XLVq-225">
          <mxGeometry y="324" width="240" height="26" as="geometry" />
        </mxCell>
        <mxCell id="XcWfCShOmDu8Nu97XLVq-242" value="ClienteDML" style="swimlane;fontStyle=0;childLayout=stackLayout;horizontal=1;startSize=26;fillColor=none;horizontalStack=0;resizeParent=1;resizeParentMax=0;resizeLast=0;collapsible=1;marginBottom=0;whiteSpace=wrap;html=1;" vertex="1" parent="1">
          <mxGeometry x="435" y="-807" width="240" height="104" as="geometry" />
        </mxCell>
        <mxCell id="XcWfCShOmDu8Nu97XLVq-244" value="+ gravarCliente (conexao,String,Cliente)" style="text;strokeColor=none;fillColor=none;align=left;verticalAlign=top;spacingLeft=4;spacingRight=4;overflow=hidden;rotatable=0;points=[[0,0.5],[1,0.5]];portConstraint=eastwest;whiteSpace=wrap;html=1;" vertex="1" parent="XcWfCShOmDu8Nu97XLVq-242">
          <mxGeometry y="26" width="240" height="26" as="geometry" />
        </mxCell>
        <mxCell id="XcWfCShOmDu8Nu97XLVq-246" value="+ alterarCliente (conexao,String,Cliente)" style="text;strokeColor=none;fillColor=none;align=left;verticalAlign=top;spacingLeft=4;spacingRight=4;overflow=hidden;rotatable=0;points=[[0,0.5],[1,0.5]];portConstraint=eastwest;whiteSpace=wrap;html=1;" vertex="1" parent="XcWfCShOmDu8Nu97XLVq-242">
          <mxGeometry y="52" width="240" height="26" as="geometry" />
        </mxCell>
        <mxCell id="XcWfCShOmDu8Nu97XLVq-247" value="+ excluirCliente (conexao,String,Cliente)" style="text;strokeColor=none;fillColor=none;align=left;verticalAlign=top;spacingLeft=4;spacingRight=4;overflow=hidden;rotatable=0;points=[[0,0.5],[1,0.5]];portConstraint=eastwest;whiteSpace=wrap;html=1;" vertex="1" parent="XcWfCShOmDu8Nu97XLVq-242">
          <mxGeometry y="78" width="240" height="26" as="geometry" />
        </mxCell>
        <mxCell id="XcWfCShOmDu8Nu97XLVq-248" value="EmpresaDML" style="swimlane;fontStyle=0;childLayout=stackLayout;horizontal=1;startSize=26;fillColor=none;horizontalStack=0;resizeParent=1;resizeParentMax=0;resizeLast=0;collapsible=1;marginBottom=0;whiteSpace=wrap;html=1;" vertex="1" parent="1">
          <mxGeometry x="1760" y="-795" width="270" height="104" as="geometry" />
        </mxCell>
        <mxCell id="XcWfCShOmDu8Nu97XLVq-249" value="+ gravarEmpresa (conexao,String,Empresa)" style="text;strokeColor=none;fillColor=none;align=left;verticalAlign=top;spacingLeft=4;spacingRight=4;overflow=hidden;rotatable=0;points=[[0,0.5],[1,0.5]];portConstraint=eastwest;whiteSpace=wrap;html=1;" vertex="1" parent="XcWfCShOmDu8Nu97XLVq-248">
          <mxGeometry y="26" width="270" height="26" as="geometry" />
        </mxCell>
        <mxCell id="XcWfCShOmDu8Nu97XLVq-250" value="+ alterarEmpresa (conexao,String,Empresa)" style="text;strokeColor=none;fillColor=none;align=left;verticalAlign=top;spacingLeft=4;spacingRight=4;overflow=hidden;rotatable=0;points=[[0,0.5],[1,0.5]];portConstraint=eastwest;whiteSpace=wrap;html=1;" vertex="1" parent="XcWfCShOmDu8Nu97XLVq-248">
          <mxGeometry y="52" width="270" height="26" as="geometry" />
        </mxCell>
        <mxCell id="XcWfCShOmDu8Nu97XLVq-251" value="+ excluirEmpresa (conexao,String,Empresa)" style="text;strokeColor=none;fillColor=none;align=left;verticalAlign=top;spacingLeft=4;spacingRight=4;overflow=hidden;rotatable=0;points=[[0,0.5],[1,0.5]];portConstraint=eastwest;whiteSpace=wrap;html=1;" vertex="1" parent="XcWfCShOmDu8Nu97XLVq-248">
          <mxGeometry y="78" width="270" height="26" as="geometry" />
        </mxCell>
        <mxCell id="XcWfCShOmDu8Nu97XLVq-252" value="PedidoDML" style="swimlane;fontStyle=0;childLayout=stackLayout;horizontal=1;startSize=26;fillColor=none;horizontalStack=0;resizeParent=1;resizeParentMax=0;resizeLast=0;collapsible=1;marginBottom=0;whiteSpace=wrap;html=1;" vertex="1" parent="1">
          <mxGeometry x="510" y="360" width="240" height="104" as="geometry" />
        </mxCell>
        <mxCell id="XcWfCShOmDu8Nu97XLVq-253" value="+ gravarPedido (conexao,String,Pedido)" style="text;strokeColor=none;fillColor=none;align=left;verticalAlign=top;spacingLeft=4;spacingRight=4;overflow=hidden;rotatable=0;points=[[0,0.5],[1,0.5]];portConstraint=eastwest;whiteSpace=wrap;html=1;" vertex="1" parent="XcWfCShOmDu8Nu97XLVq-252">
          <mxGeometry y="26" width="240" height="26" as="geometry" />
        </mxCell>
        <mxCell id="XcWfCShOmDu8Nu97XLVq-254" value="+ alterarPedido (conexao,String,Pedido)" style="text;strokeColor=none;fillColor=none;align=left;verticalAlign=top;spacingLeft=4;spacingRight=4;overflow=hidden;rotatable=0;points=[[0,0.5],[1,0.5]];portConstraint=eastwest;whiteSpace=wrap;html=1;" vertex="1" parent="XcWfCShOmDu8Nu97XLVq-252">
          <mxGeometry y="52" width="240" height="26" as="geometry" />
        </mxCell>
        <mxCell id="XcWfCShOmDu8Nu97XLVq-255" value="+ excluirPedido (conexao,String,Pedido)" style="text;strokeColor=none;fillColor=none;align=left;verticalAlign=top;spacingLeft=4;spacingRight=4;overflow=hidden;rotatable=0;points=[[0,0.5],[1,0.5]];portConstraint=eastwest;whiteSpace=wrap;html=1;" vertex="1" parent="XcWfCShOmDu8Nu97XLVq-252">
          <mxGeometry y="78" width="240" height="26" as="geometry" />
        </mxCell>
        <mxCell id="XcWfCShOmDu8Nu97XLVq-256" value="PedidoItemDML" style="swimlane;fontStyle=0;childLayout=stackLayout;horizontal=1;startSize=26;fillColor=none;horizontalStack=0;resizeParent=1;resizeParentMax=0;resizeLast=0;collapsible=1;marginBottom=0;whiteSpace=wrap;html=1;" vertex="1" parent="1">
          <mxGeometry x="756" y="-400" width="280" height="104" as="geometry" />
        </mxCell>
        <mxCell id="XcWfCShOmDu8Nu97XLVq-257" value="+ gravarPedidoItem (conexao,String,PedidoItem)" style="text;strokeColor=none;fillColor=none;align=left;verticalAlign=top;spacingLeft=4;spacingRight=4;overflow=hidden;rotatable=0;points=[[0,0.5],[1,0.5]];portConstraint=eastwest;whiteSpace=wrap;html=1;" vertex="1" parent="XcWfCShOmDu8Nu97XLVq-256">
          <mxGeometry y="26" width="280" height="26" as="geometry" />
        </mxCell>
        <mxCell id="XcWfCShOmDu8Nu97XLVq-258" value="+ alterarPedidoItem (conexao,String,PedidoItem)" style="text;strokeColor=none;fillColor=none;align=left;verticalAlign=top;spacingLeft=4;spacingRight=4;overflow=hidden;rotatable=0;points=[[0,0.5],[1,0.5]];portConstraint=eastwest;whiteSpace=wrap;html=1;" vertex="1" parent="XcWfCShOmDu8Nu97XLVq-256">
          <mxGeometry y="52" width="280" height="26" as="geometry" />
        </mxCell>
        <mxCell id="XcWfCShOmDu8Nu97XLVq-259" value="+ excluirPedidoItem (conexao,String,PedidoItem)" style="text;strokeColor=none;fillColor=none;align=left;verticalAlign=top;spacingLeft=4;spacingRight=4;overflow=hidden;rotatable=0;points=[[0,0.5],[1,0.5]];portConstraint=eastwest;whiteSpace=wrap;html=1;" vertex="1" parent="XcWfCShOmDu8Nu97XLVq-256">
          <mxGeometry y="78" width="280" height="26" as="geometry" />
        </mxCell>
        <mxCell id="XcWfCShOmDu8Nu97XLVq-260" value="ProdEmprDML" style="swimlane;fontStyle=0;childLayout=stackLayout;horizontal=1;startSize=26;fillColor=none;horizontalStack=0;resizeParent=1;resizeParentMax=0;resizeLast=0;collapsible=1;marginBottom=0;whiteSpace=wrap;html=1;" vertex="1" parent="1">
          <mxGeometry x="1610" y="350" width="280" height="104" as="geometry" />
        </mxCell>
        <mxCell id="XcWfCShOmDu8Nu97XLVq-261" value="+ gravarProdEmpr (conexao,String,ProdEmpr)" style="text;strokeColor=none;fillColor=none;align=left;verticalAlign=top;spacingLeft=4;spacingRight=4;overflow=hidden;rotatable=0;points=[[0,0.5],[1,0.5]];portConstraint=eastwest;whiteSpace=wrap;html=1;" vertex="1" parent="XcWfCShOmDu8Nu97XLVq-260">
          <mxGeometry y="26" width="280" height="26" as="geometry" />
        </mxCell>
        <mxCell id="XcWfCShOmDu8Nu97XLVq-262" value="+ alterarProdEmpr (conexao,String,ProdEmpr)" style="text;strokeColor=none;fillColor=none;align=left;verticalAlign=top;spacingLeft=4;spacingRight=4;overflow=hidden;rotatable=0;points=[[0,0.5],[1,0.5]];portConstraint=eastwest;whiteSpace=wrap;html=1;" vertex="1" parent="XcWfCShOmDu8Nu97XLVq-260">
          <mxGeometry y="52" width="280" height="26" as="geometry" />
        </mxCell>
        <mxCell id="XcWfCShOmDu8Nu97XLVq-263" value="+ excluirProdEmpr (conexao,String,ProdEmpr)" style="text;strokeColor=none;fillColor=none;align=left;verticalAlign=top;spacingLeft=4;spacingRight=4;overflow=hidden;rotatable=0;points=[[0,0.5],[1,0.5]];portConstraint=eastwest;whiteSpace=wrap;html=1;" vertex="1" parent="XcWfCShOmDu8Nu97XLVq-260">
          <mxGeometry y="78" width="280" height="26" as="geometry" />
        </mxCell>
        <mxCell id="XcWfCShOmDu8Nu97XLVq-264" value="ProdutoDML" style="swimlane;fontStyle=0;childLayout=stackLayout;horizontal=1;startSize=26;fillColor=none;horizontalStack=0;resizeParent=1;resizeParentMax=0;resizeLast=0;collapsible=1;marginBottom=0;whiteSpace=wrap;html=1;" vertex="1" parent="1">
          <mxGeometry x="1500" y="-410" width="240" height="104" as="geometry" />
        </mxCell>
        <mxCell id="XcWfCShOmDu8Nu97XLVq-265" value="+ gravarProduto (conexao,String,Produto)" style="text;strokeColor=none;fillColor=none;align=left;verticalAlign=top;spacingLeft=4;spacingRight=4;overflow=hidden;rotatable=0;points=[[0,0.5],[1,0.5]];portConstraint=eastwest;whiteSpace=wrap;html=1;" vertex="1" parent="XcWfCShOmDu8Nu97XLVq-264">
          <mxGeometry y="26" width="240" height="26" as="geometry" />
        </mxCell>
        <mxCell id="XcWfCShOmDu8Nu97XLVq-266" value="+ alterarProduto (conexao,String,Produto)" style="text;strokeColor=none;fillColor=none;align=left;verticalAlign=top;spacingLeft=4;spacingRight=4;overflow=hidden;rotatable=0;points=[[0,0.5],[1,0.5]];portConstraint=eastwest;whiteSpace=wrap;html=1;" vertex="1" parent="XcWfCShOmDu8Nu97XLVq-264">
          <mxGeometry y="52" width="240" height="26" as="geometry" />
        </mxCell>
        <mxCell id="XcWfCShOmDu8Nu97XLVq-267" value="+ excluirProduto (conexao,String,Produto)" style="text;strokeColor=none;fillColor=none;align=left;verticalAlign=top;spacingLeft=4;spacingRight=4;overflow=hidden;rotatable=0;points=[[0,0.5],[1,0.5]];portConstraint=eastwest;whiteSpace=wrap;html=1;" vertex="1" parent="XcWfCShOmDu8Nu97XLVq-264">
          <mxGeometry y="78" width="240" height="26" as="geometry" />
        </mxCell>
        <mxCell id="SeJOZOb3qlBdoNpVtxdW-8" value="ListaCliente" style="swimlane;fontStyle=1;align=center;verticalAlign=top;childLayout=stackLayout;horizontal=1;startSize=30;horizontalStack=0;resizeParent=1;resizeParentMax=0;resizeLast=0;collapsible=1;marginBottom=0;whiteSpace=wrap;html=1;" vertex="1" parent="1">
          <mxGeometry y="-795" width="260" height="272" as="geometry" />
        </mxCell>
        <mxCell id="SeJOZOb3qlBdoNpVtxdW-9" value="- con: conexao&amp;nbsp;" style="text;strokeColor=none;fillColor=none;align=left;verticalAlign=top;spacingLeft=4;spacingRight=4;overflow=hidden;rotatable=0;points=[[0,0.5],[1,0.5]];portConstraint=eastwest;whiteSpace=wrap;html=1;" vertex="1" parent="SeJOZOb3qlBdoNpVtxdW-8">
          <mxGeometry y="30" width="260" height="26" as="geometry" />
        </mxCell>
        <mxCell id="SeJOZOb3qlBdoNpVtxdW-12" value="- Schema: String" style="text;strokeColor=none;fillColor=none;align=left;verticalAlign=top;spacingLeft=4;spacingRight=4;overflow=hidden;rotatable=0;points=[[0,0.5],[1,0.5]];portConstraint=eastwest;whiteSpace=wrap;html=1;" vertex="1" parent="SeJOZOb3qlBdoNpVtxdW-8">
          <mxGeometry y="56" width="260" height="26" as="geometry" />
        </mxCell>
        <mxCell id="SeJOZOb3qlBdoNpVtxdW-13" value="clientes: ArrayList &amp;lt;Cliente&amp;gt;" style="text;strokeColor=none;fillColor=none;align=left;verticalAlign=top;spacingLeft=4;spacingRight=4;overflow=hidden;rotatable=0;points=[[0,0.5],[1,0.5]];portConstraint=eastwest;whiteSpace=wrap;html=1;" vertex="1" parent="SeJOZOb3qlBdoNpVtxdW-8">
          <mxGeometry y="82" width="260" height="26" as="geometry" />
        </mxCell>
        <mxCell id="SeJOZOb3qlBdoNpVtxdW-10" value="" style="line;strokeWidth=1;fillColor=none;align=left;verticalAlign=middle;spacingTop=-1;spacingLeft=3;spacingRight=3;rotatable=0;labelPosition=right;points=[];portConstraint=eastwest;strokeColor=inherit;" vertex="1" parent="SeJOZOb3qlBdoNpVtxdW-8">
          <mxGeometry y="108" width="260" height="8" as="geometry" />
        </mxCell>
        <mxCell id="SeJOZOb3qlBdoNpVtxdW-11" value="+ ListarCliente (Conexao,String)" style="text;strokeColor=none;fillColor=none;align=left;verticalAlign=top;spacingLeft=4;spacingRight=4;overflow=hidden;rotatable=0;points=[[0,0.5],[1,0.5]];portConstraint=eastwest;whiteSpace=wrap;html=1;" vertex="1" parent="SeJOZOb3qlBdoNpVtxdW-8">
          <mxGeometry y="116" width="260" height="26" as="geometry" />
        </mxCell>
        <mxCell id="SeJOZOb3qlBdoNpVtxdW-14" value="+ adicionarListarCliente (Cliente)" style="text;strokeColor=none;fillColor=none;align=left;verticalAlign=top;spacingLeft=4;spacingRight=4;overflow=hidden;rotatable=0;points=[[0,0.5],[1,0.5]];portConstraint=eastwest;whiteSpace=wrap;html=1;" vertex="1" parent="SeJOZOb3qlBdoNpVtxdW-8">
          <mxGeometry y="142" width="260" height="26" as="geometry" />
        </mxCell>
        <mxCell id="SeJOZOb3qlBdoNpVtxdW-15" value="+ localizarCliente (int): Cliente" style="text;strokeColor=none;fillColor=none;align=left;verticalAlign=top;spacingLeft=4;spacingRight=4;overflow=hidden;rotatable=0;points=[[0,0.5],[1,0.5]];portConstraint=eastwest;whiteSpace=wrap;html=1;" vertex="1" parent="SeJOZOb3qlBdoNpVtxdW-8">
          <mxGeometry y="168" width="260" height="26" as="geometry" />
        </mxCell>
        <mxCell id="SeJOZOb3qlBdoNpVtxdW-16" value="- carregarListaCliente ()" style="text;strokeColor=none;fillColor=none;align=left;verticalAlign=top;spacingLeft=4;spacingRight=4;overflow=hidden;rotatable=0;points=[[0,0.5],[1,0.5]];portConstraint=eastwest;whiteSpace=wrap;html=1;" vertex="1" parent="SeJOZOb3qlBdoNpVtxdW-8">
          <mxGeometry y="194" width="260" height="26" as="geometry" />
        </mxCell>
        <mxCell id="SeJOZOb3qlBdoNpVtxdW-17" value="+ imprimirCliente ()" style="text;strokeColor=none;fillColor=none;align=left;verticalAlign=top;spacingLeft=4;spacingRight=4;overflow=hidden;rotatable=0;points=[[0,0.5],[1,0.5]];portConstraint=eastwest;whiteSpace=wrap;html=1;" vertex="1" parent="SeJOZOb3qlBdoNpVtxdW-8">
          <mxGeometry y="220" width="260" height="26" as="geometry" />
        </mxCell>
        <mxCell id="SeJOZOb3qlBdoNpVtxdW-18" value="- dadosCliente (ResultSet): Cliente" style="text;strokeColor=none;fillColor=none;align=left;verticalAlign=top;spacingLeft=4;spacingRight=4;overflow=hidden;rotatable=0;points=[[0,0.5],[1,0.5]];portConstraint=eastwest;whiteSpace=wrap;html=1;" vertex="1" parent="SeJOZOb3qlBdoNpVtxdW-8">
          <mxGeometry y="246" width="260" height="26" as="geometry" />
        </mxCell>
        <mxCell id="SeJOZOb3qlBdoNpVtxdW-19" value="ListaEmpresa" style="swimlane;fontStyle=1;align=center;verticalAlign=top;childLayout=stackLayout;horizontal=1;startSize=30;horizontalStack=0;resizeParent=1;resizeParentMax=0;resizeLast=0;collapsible=1;marginBottom=0;whiteSpace=wrap;html=1;" vertex="1" parent="1">
          <mxGeometry x="2150" y="-879" width="230" height="272" as="geometry" />
        </mxCell>
        <mxCell id="SeJOZOb3qlBdoNpVtxdW-20" value="- con: conexao&amp;nbsp;" style="text;strokeColor=none;fillColor=none;align=left;verticalAlign=top;spacingLeft=4;spacingRight=4;overflow=hidden;rotatable=0;points=[[0,0.5],[1,0.5]];portConstraint=eastwest;whiteSpace=wrap;html=1;" vertex="1" parent="SeJOZOb3qlBdoNpVtxdW-19">
          <mxGeometry y="30" width="230" height="26" as="geometry" />
        </mxCell>
        <mxCell id="SeJOZOb3qlBdoNpVtxdW-21" value="- schema: String" style="text;strokeColor=none;fillColor=none;align=left;verticalAlign=top;spacingLeft=4;spacingRight=4;overflow=hidden;rotatable=0;points=[[0,0.5],[1,0.5]];portConstraint=eastwest;whiteSpace=wrap;html=1;" vertex="1" parent="SeJOZOb3qlBdoNpVtxdW-19">
          <mxGeometry y="56" width="230" height="26" as="geometry" />
        </mxCell>
        <mxCell id="SeJOZOb3qlBdoNpVtxdW-22" value="empresas: ArrayList &amp;lt;Empresa&amp;gt;" style="text;strokeColor=none;fillColor=none;align=left;verticalAlign=top;spacingLeft=4;spacingRight=4;overflow=hidden;rotatable=0;points=[[0,0.5],[1,0.5]];portConstraint=eastwest;whiteSpace=wrap;html=1;" vertex="1" parent="SeJOZOb3qlBdoNpVtxdW-19">
          <mxGeometry y="82" width="230" height="26" as="geometry" />
        </mxCell>
        <mxCell id="SeJOZOb3qlBdoNpVtxdW-23" value="" style="line;strokeWidth=1;fillColor=none;align=left;verticalAlign=middle;spacingTop=-1;spacingLeft=3;spacingRight=3;rotatable=0;labelPosition=right;points=[];portConstraint=eastwest;strokeColor=inherit;" vertex="1" parent="SeJOZOb3qlBdoNpVtxdW-19">
          <mxGeometry y="108" width="230" height="8" as="geometry" />
        </mxCell>
        <mxCell id="SeJOZOb3qlBdoNpVtxdW-24" value="+ ListarEmpresa&amp;nbsp;(Conexao,String)" style="text;strokeColor=none;fillColor=none;align=left;verticalAlign=top;spacingLeft=4;spacingRight=4;overflow=hidden;rotatable=0;points=[[0,0.5],[1,0.5]];portConstraint=eastwest;whiteSpace=wrap;html=1;" vertex="1" parent="SeJOZOb3qlBdoNpVtxdW-19">
          <mxGeometry y="116" width="230" height="26" as="geometry" />
        </mxCell>
        <mxCell id="SeJOZOb3qlBdoNpVtxdW-25" value="+ adicionarEmpresaLista (Empresa)" style="text;strokeColor=none;fillColor=none;align=left;verticalAlign=top;spacingLeft=4;spacingRight=4;overflow=hidden;rotatable=0;points=[[0,0.5],[1,0.5]];portConstraint=eastwest;whiteSpace=wrap;html=1;" vertex="1" parent="SeJOZOb3qlBdoNpVtxdW-19">
          <mxGeometry y="142" width="230" height="26" as="geometry" />
        </mxCell>
        <mxCell id="SeJOZOb3qlBdoNpVtxdW-26" value="+ localizarEmpresa&amp;nbsp;(int): Empresa" style="text;strokeColor=none;fillColor=none;align=left;verticalAlign=top;spacingLeft=4;spacingRight=4;overflow=hidden;rotatable=0;points=[[0,0.5],[1,0.5]];portConstraint=eastwest;whiteSpace=wrap;html=1;" vertex="1" parent="SeJOZOb3qlBdoNpVtxdW-19">
          <mxGeometry y="168" width="230" height="26" as="geometry" />
        </mxCell>
        <mxCell id="SeJOZOb3qlBdoNpVtxdW-27" value="- carregarListaEmpresa&amp;nbsp;()" style="text;strokeColor=none;fillColor=none;align=left;verticalAlign=top;spacingLeft=4;spacingRight=4;overflow=hidden;rotatable=0;points=[[0,0.5],[1,0.5]];portConstraint=eastwest;whiteSpace=wrap;html=1;" vertex="1" parent="SeJOZOb3qlBdoNpVtxdW-19">
          <mxGeometry y="194" width="230" height="26" as="geometry" />
        </mxCell>
        <mxCell id="SeJOZOb3qlBdoNpVtxdW-28" value="+ imprimirEmpresa&amp;nbsp;()" style="text;strokeColor=none;fillColor=none;align=left;verticalAlign=top;spacingLeft=4;spacingRight=4;overflow=hidden;rotatable=0;points=[[0,0.5],[1,0.5]];portConstraint=eastwest;whiteSpace=wrap;html=1;" vertex="1" parent="SeJOZOb3qlBdoNpVtxdW-19">
          <mxGeometry y="220" width="230" height="26" as="geometry" />
        </mxCell>
        <mxCell id="SeJOZOb3qlBdoNpVtxdW-29" value="- dadosEmpresa&amp;nbsp;(ResultSet): Empresa" style="text;strokeColor=none;fillColor=none;align=left;verticalAlign=top;spacingLeft=4;spacingRight=4;overflow=hidden;rotatable=0;points=[[0,0.5],[1,0.5]];portConstraint=eastwest;whiteSpace=wrap;html=1;" vertex="1" parent="SeJOZOb3qlBdoNpVtxdW-19">
          <mxGeometry y="246" width="230" height="26" as="geometry" />
        </mxCell>
        <mxCell id="SeJOZOb3qlBdoNpVtxdW-30" value="ListaPedido" style="swimlane;fontStyle=1;align=center;verticalAlign=top;childLayout=stackLayout;horizontal=1;startSize=30;horizontalStack=0;resizeParent=1;resizeParentMax=0;resizeLast=0;collapsible=1;marginBottom=0;whiteSpace=wrap;html=1;" vertex="1" parent="1">
          <mxGeometry x="110" y="950" width="230" height="272" as="geometry" />
        </mxCell>
        <mxCell id="SeJOZOb3qlBdoNpVtxdW-31" value="- con: conexao&amp;nbsp;" style="text;strokeColor=none;fillColor=none;align=left;verticalAlign=top;spacingLeft=4;spacingRight=4;overflow=hidden;rotatable=0;points=[[0,0.5],[1,0.5]];portConstraint=eastwest;whiteSpace=wrap;html=1;" vertex="1" parent="SeJOZOb3qlBdoNpVtxdW-30">
          <mxGeometry y="30" width="230" height="26" as="geometry" />
        </mxCell>
        <mxCell id="SeJOZOb3qlBdoNpVtxdW-32" value="- schema: String" style="text;strokeColor=none;fillColor=none;align=left;verticalAlign=top;spacingLeft=4;spacingRight=4;overflow=hidden;rotatable=0;points=[[0,0.5],[1,0.5]];portConstraint=eastwest;whiteSpace=wrap;html=1;" vertex="1" parent="SeJOZOb3qlBdoNpVtxdW-30">
          <mxGeometry y="56" width="230" height="26" as="geometry" />
        </mxCell>
        <mxCell id="SeJOZOb3qlBdoNpVtxdW-33" value="pedidos: ArrayList &amp;lt;Pedido&amp;gt;" style="text;strokeColor=none;fillColor=none;align=left;verticalAlign=top;spacingLeft=4;spacingRight=4;overflow=hidden;rotatable=0;points=[[0,0.5],[1,0.5]];portConstraint=eastwest;whiteSpace=wrap;html=1;" vertex="1" parent="SeJOZOb3qlBdoNpVtxdW-30">
          <mxGeometry y="82" width="230" height="26" as="geometry" />
        </mxCell>
        <mxCell id="SeJOZOb3qlBdoNpVtxdW-34" value="" style="line;strokeWidth=1;fillColor=none;align=left;verticalAlign=middle;spacingTop=-1;spacingLeft=3;spacingRight=3;rotatable=0;labelPosition=right;points=[];portConstraint=eastwest;strokeColor=inherit;" vertex="1" parent="SeJOZOb3qlBdoNpVtxdW-30">
          <mxGeometry y="108" width="230" height="8" as="geometry" />
        </mxCell>
        <mxCell id="SeJOZOb3qlBdoNpVtxdW-35" value="+ ListarPedidos&amp;nbsp;&amp;nbsp;(Conexao, String)" style="text;strokeColor=none;fillColor=none;align=left;verticalAlign=top;spacingLeft=4;spacingRight=4;overflow=hidden;rotatable=0;points=[[0,0.5],[1,0.5]];portConstraint=eastwest;whiteSpace=wrap;html=1;" vertex="1" parent="SeJOZOb3qlBdoNpVtxdW-30">
          <mxGeometry y="116" width="230" height="26" as="geometry" />
        </mxCell>
        <mxCell id="SeJOZOb3qlBdoNpVtxdW-36" value="+ adicionarPedidoLista (Pedido)" style="text;strokeColor=none;fillColor=none;align=left;verticalAlign=top;spacingLeft=4;spacingRight=4;overflow=hidden;rotatable=0;points=[[0,0.5],[1,0.5]];portConstraint=eastwest;whiteSpace=wrap;html=1;" vertex="1" parent="SeJOZOb3qlBdoNpVtxdW-30">
          <mxGeometry y="142" width="230" height="26" as="geometry" />
        </mxCell>
        <mxCell id="SeJOZOb3qlBdoNpVtxdW-37" value="+ localizarPedido&amp;nbsp;(int): Pedido" style="text;strokeColor=none;fillColor=none;align=left;verticalAlign=top;spacingLeft=4;spacingRight=4;overflow=hidden;rotatable=0;points=[[0,0.5],[1,0.5]];portConstraint=eastwest;whiteSpace=wrap;html=1;" vertex="1" parent="SeJOZOb3qlBdoNpVtxdW-30">
          <mxGeometry y="168" width="230" height="26" as="geometry" />
        </mxCell>
        <mxCell id="SeJOZOb3qlBdoNpVtxdW-38" value="- carregarListaPedido&amp;nbsp;()" style="text;strokeColor=none;fillColor=none;align=left;verticalAlign=top;spacingLeft=4;spacingRight=4;overflow=hidden;rotatable=0;points=[[0,0.5],[1,0.5]];portConstraint=eastwest;whiteSpace=wrap;html=1;" vertex="1" parent="SeJOZOb3qlBdoNpVtxdW-30">
          <mxGeometry y="194" width="230" height="26" as="geometry" />
        </mxCell>
        <mxCell id="SeJOZOb3qlBdoNpVtxdW-39" value="+ imprimirPedidos ()" style="text;strokeColor=none;fillColor=none;align=left;verticalAlign=top;spacingLeft=4;spacingRight=4;overflow=hidden;rotatable=0;points=[[0,0.5],[1,0.5]];portConstraint=eastwest;whiteSpace=wrap;html=1;" vertex="1" parent="SeJOZOb3qlBdoNpVtxdW-30">
          <mxGeometry y="220" width="230" height="26" as="geometry" />
        </mxCell>
        <mxCell id="SeJOZOb3qlBdoNpVtxdW-40" value="- dadosPedido&amp;nbsp;(ResultSet): Pedido" style="text;strokeColor=none;fillColor=none;align=left;verticalAlign=top;spacingLeft=4;spacingRight=4;overflow=hidden;rotatable=0;points=[[0,0.5],[1,0.5]];portConstraint=eastwest;whiteSpace=wrap;html=1;" vertex="1" parent="SeJOZOb3qlBdoNpVtxdW-30">
          <mxGeometry y="246" width="230" height="26" as="geometry" />
        </mxCell>
        <mxCell id="SeJOZOb3qlBdoNpVtxdW-41" value="ListaPedidoItem" style="swimlane;fontStyle=1;align=center;verticalAlign=top;childLayout=stackLayout;horizontal=1;startSize=30;horizontalStack=0;resizeParent=1;resizeParentMax=0;resizeLast=0;collapsible=1;marginBottom=0;whiteSpace=wrap;html=1;" vertex="1" parent="1">
          <mxGeometry y="5.684341886080802e-14" width="260" height="272" as="geometry" />
        </mxCell>
        <mxCell id="SeJOZOb3qlBdoNpVtxdW-42" value="- con: conexao&amp;nbsp;" style="text;strokeColor=none;fillColor=none;align=left;verticalAlign=top;spacingLeft=4;spacingRight=4;overflow=hidden;rotatable=0;points=[[0,0.5],[1,0.5]];portConstraint=eastwest;whiteSpace=wrap;html=1;" vertex="1" parent="SeJOZOb3qlBdoNpVtxdW-41">
          <mxGeometry y="30" width="260" height="26" as="geometry" />
        </mxCell>
        <mxCell id="SeJOZOb3qlBdoNpVtxdW-43" value="- schema: String" style="text;strokeColor=none;fillColor=none;align=left;verticalAlign=top;spacingLeft=4;spacingRight=4;overflow=hidden;rotatable=0;points=[[0,0.5],[1,0.5]];portConstraint=eastwest;whiteSpace=wrap;html=1;" vertex="1" parent="SeJOZOb3qlBdoNpVtxdW-41">
          <mxGeometry y="56" width="260" height="26" as="geometry" />
        </mxCell>
        <mxCell id="SeJOZOb3qlBdoNpVtxdW-44" value="pedidoItens: ArrayList &amp;lt;PedidoItem&amp;gt;" style="text;strokeColor=none;fillColor=none;align=left;verticalAlign=top;spacingLeft=4;spacingRight=4;overflow=hidden;rotatable=0;points=[[0,0.5],[1,0.5]];portConstraint=eastwest;whiteSpace=wrap;html=1;" vertex="1" parent="SeJOZOb3qlBdoNpVtxdW-41">
          <mxGeometry y="82" width="260" height="26" as="geometry" />
        </mxCell>
        <mxCell id="SeJOZOb3qlBdoNpVtxdW-45" value="" style="line;strokeWidth=1;fillColor=none;align=left;verticalAlign=middle;spacingTop=-1;spacingLeft=3;spacingRight=3;rotatable=0;labelPosition=right;points=[];portConstraint=eastwest;strokeColor=inherit;" vertex="1" parent="SeJOZOb3qlBdoNpVtxdW-41">
          <mxGeometry y="108" width="260" height="8" as="geometry" />
        </mxCell>
        <mxCell id="SeJOZOb3qlBdoNpVtxdW-46" value="+ ListarPedidoItem&amp;nbsp;(Conexao,String)" style="text;strokeColor=none;fillColor=none;align=left;verticalAlign=top;spacingLeft=4;spacingRight=4;overflow=hidden;rotatable=0;points=[[0,0.5],[1,0.5]];portConstraint=eastwest;whiteSpace=wrap;html=1;" vertex="1" parent="SeJOZOb3qlBdoNpVtxdW-41">
          <mxGeometry y="116" width="260" height="26" as="geometry" />
        </mxCell>
        <mxCell id="SeJOZOb3qlBdoNpVtxdW-47" value="+ adicionarPedidoItemLista (PedidoItem)" style="text;strokeColor=none;fillColor=none;align=left;verticalAlign=top;spacingLeft=4;spacingRight=4;overflow=hidden;rotatable=0;points=[[0,0.5],[1,0.5]];portConstraint=eastwest;whiteSpace=wrap;html=1;" vertex="1" parent="SeJOZOb3qlBdoNpVtxdW-41">
          <mxGeometry y="142" width="260" height="26" as="geometry" />
        </mxCell>
        <mxCell id="SeJOZOb3qlBdoNpVtxdW-48" value="+ localizarPedidoItem&amp;nbsp;(int): PedidoItem" style="text;strokeColor=none;fillColor=none;align=left;verticalAlign=top;spacingLeft=4;spacingRight=4;overflow=hidden;rotatable=0;points=[[0,0.5],[1,0.5]];portConstraint=eastwest;whiteSpace=wrap;html=1;" vertex="1" parent="SeJOZOb3qlBdoNpVtxdW-41">
          <mxGeometry y="168" width="260" height="26" as="geometry" />
        </mxCell>
        <mxCell id="SeJOZOb3qlBdoNpVtxdW-49" value="- carregarListaPedidoItem&amp;nbsp;()" style="text;strokeColor=none;fillColor=none;align=left;verticalAlign=top;spacingLeft=4;spacingRight=4;overflow=hidden;rotatable=0;points=[[0,0.5],[1,0.5]];portConstraint=eastwest;whiteSpace=wrap;html=1;" vertex="1" parent="SeJOZOb3qlBdoNpVtxdW-41">
          <mxGeometry y="194" width="260" height="26" as="geometry" />
        </mxCell>
        <mxCell id="SeJOZOb3qlBdoNpVtxdW-50" value="+ imprimirPedidoItem&amp;nbsp;()" style="text;strokeColor=none;fillColor=none;align=left;verticalAlign=top;spacingLeft=4;spacingRight=4;overflow=hidden;rotatable=0;points=[[0,0.5],[1,0.5]];portConstraint=eastwest;whiteSpace=wrap;html=1;" vertex="1" parent="SeJOZOb3qlBdoNpVtxdW-41">
          <mxGeometry y="220" width="260" height="26" as="geometry" />
        </mxCell>
        <mxCell id="SeJOZOb3qlBdoNpVtxdW-51" value="- dadosPedidoItem&amp;nbsp;(ResultSet): PedidoItem" style="text;strokeColor=none;fillColor=none;align=left;verticalAlign=top;spacingLeft=4;spacingRight=4;overflow=hidden;rotatable=0;points=[[0,0.5],[1,0.5]];portConstraint=eastwest;whiteSpace=wrap;html=1;" vertex="1" parent="SeJOZOb3qlBdoNpVtxdW-41">
          <mxGeometry y="246" width="260" height="26" as="geometry" />
        </mxCell>
        <mxCell id="SeJOZOb3qlBdoNpVtxdW-53" value="ListaProdEmpr" style="swimlane;fontStyle=1;align=center;verticalAlign=top;childLayout=stackLayout;horizontal=1;startSize=30;horizontalStack=0;resizeParent=1;resizeParentMax=0;resizeLast=0;collapsible=1;marginBottom=0;whiteSpace=wrap;html=1;" vertex="1" parent="1">
          <mxGeometry x="2090" y="897" width="260" height="272" as="geometry" />
        </mxCell>
        <mxCell id="SeJOZOb3qlBdoNpVtxdW-54" value="- con : conexao&amp;nbsp;" style="text;strokeColor=none;fillColor=none;align=left;verticalAlign=top;spacingLeft=4;spacingRight=4;overflow=hidden;rotatable=0;points=[[0,0.5],[1,0.5]];portConstraint=eastwest;whiteSpace=wrap;html=1;" vertex="1" parent="SeJOZOb3qlBdoNpVtxdW-53">
          <mxGeometry y="30" width="260" height="26" as="geometry" />
        </mxCell>
        <mxCell id="SeJOZOb3qlBdoNpVtxdW-55" value="- schema: String" style="text;strokeColor=none;fillColor=none;align=left;verticalAlign=top;spacingLeft=4;spacingRight=4;overflow=hidden;rotatable=0;points=[[0,0.5],[1,0.5]];portConstraint=eastwest;whiteSpace=wrap;html=1;" vertex="1" parent="SeJOZOb3qlBdoNpVtxdW-53">
          <mxGeometry y="56" width="260" height="26" as="geometry" />
        </mxCell>
        <mxCell id="SeJOZOb3qlBdoNpVtxdW-56" value="prodEmprs : ArrayList &amp;lt;ProdEmpr&amp;gt;" style="text;strokeColor=none;fillColor=none;align=left;verticalAlign=top;spacingLeft=4;spacingRight=4;overflow=hidden;rotatable=0;points=[[0,0.5],[1,0.5]];portConstraint=eastwest;whiteSpace=wrap;html=1;" vertex="1" parent="SeJOZOb3qlBdoNpVtxdW-53">
          <mxGeometry y="82" width="260" height="26" as="geometry" />
        </mxCell>
        <mxCell id="SeJOZOb3qlBdoNpVtxdW-57" value="" style="line;strokeWidth=1;fillColor=none;align=left;verticalAlign=middle;spacingTop=-1;spacingLeft=3;spacingRight=3;rotatable=0;labelPosition=right;points=[];portConstraint=eastwest;strokeColor=inherit;" vertex="1" parent="SeJOZOb3qlBdoNpVtxdW-53">
          <mxGeometry y="108" width="260" height="8" as="geometry" />
        </mxCell>
        <mxCell id="SeJOZOb3qlBdoNpVtxdW-58" value="+ ListarProdEmpr&amp;nbsp;(Conexao,String)" style="text;strokeColor=none;fillColor=none;align=left;verticalAlign=top;spacingLeft=4;spacingRight=4;overflow=hidden;rotatable=0;points=[[0,0.5],[1,0.5]];portConstraint=eastwest;whiteSpace=wrap;html=1;" vertex="1" parent="SeJOZOb3qlBdoNpVtxdW-53">
          <mxGeometry y="116" width="260" height="26" as="geometry" />
        </mxCell>
        <mxCell id="SeJOZOb3qlBdoNpVtxdW-59" value="+ adicionarProdEmprLista (ProdEmpr)" style="text;strokeColor=none;fillColor=none;align=left;verticalAlign=top;spacingLeft=4;spacingRight=4;overflow=hidden;rotatable=0;points=[[0,0.5],[1,0.5]];portConstraint=eastwest;whiteSpace=wrap;html=1;" vertex="1" parent="SeJOZOb3qlBdoNpVtxdW-53">
          <mxGeometry y="142" width="260" height="26" as="geometry" />
        </mxCell>
        <mxCell id="SeJOZOb3qlBdoNpVtxdW-60" value="+ localizarProdEmpr&amp;nbsp;(int): ProdEmpr" style="text;strokeColor=none;fillColor=none;align=left;verticalAlign=top;spacingLeft=4;spacingRight=4;overflow=hidden;rotatable=0;points=[[0,0.5],[1,0.5]];portConstraint=eastwest;whiteSpace=wrap;html=1;" vertex="1" parent="SeJOZOb3qlBdoNpVtxdW-53">
          <mxGeometry y="168" width="260" height="26" as="geometry" />
        </mxCell>
        <mxCell id="SeJOZOb3qlBdoNpVtxdW-61" value="- carregarListaProdEmpr&amp;nbsp;()" style="text;strokeColor=none;fillColor=none;align=left;verticalAlign=top;spacingLeft=4;spacingRight=4;overflow=hidden;rotatable=0;points=[[0,0.5],[1,0.5]];portConstraint=eastwest;whiteSpace=wrap;html=1;" vertex="1" parent="SeJOZOb3qlBdoNpVtxdW-53">
          <mxGeometry y="194" width="260" height="26" as="geometry" />
        </mxCell>
        <mxCell id="SeJOZOb3qlBdoNpVtxdW-62" value="+ imprimirProdEmpr&amp;nbsp;()" style="text;strokeColor=none;fillColor=none;align=left;verticalAlign=top;spacingLeft=4;spacingRight=4;overflow=hidden;rotatable=0;points=[[0,0.5],[1,0.5]];portConstraint=eastwest;whiteSpace=wrap;html=1;" vertex="1" parent="SeJOZOb3qlBdoNpVtxdW-53">
          <mxGeometry y="220" width="260" height="26" as="geometry" />
        </mxCell>
        <mxCell id="SeJOZOb3qlBdoNpVtxdW-63" value="- dadosProdEmprs (ResultSet): ProdEmpr" style="text;strokeColor=none;fillColor=none;align=left;verticalAlign=top;spacingLeft=4;spacingRight=4;overflow=hidden;rotatable=0;points=[[0,0.5],[1,0.5]];portConstraint=eastwest;whiteSpace=wrap;html=1;" vertex="1" parent="SeJOZOb3qlBdoNpVtxdW-53">
          <mxGeometry y="246" width="260" height="26" as="geometry" />
        </mxCell>
        <mxCell id="SeJOZOb3qlBdoNpVtxdW-64" value="ListaProduto" style="swimlane;fontStyle=1;align=center;verticalAlign=top;childLayout=stackLayout;horizontal=1;startSize=30;horizontalStack=0;resizeParent=1;resizeParentMax=0;resizeLast=0;collapsible=1;marginBottom=0;whiteSpace=wrap;html=1;" vertex="1" parent="1">
          <mxGeometry x="2135" y="-96" width="260" height="272" as="geometry" />
        </mxCell>
        <mxCell id="SeJOZOb3qlBdoNpVtxdW-65" value="- con: conexao&amp;nbsp;" style="text;strokeColor=none;fillColor=none;align=left;verticalAlign=top;spacingLeft=4;spacingRight=4;overflow=hidden;rotatable=0;points=[[0,0.5],[1,0.5]];portConstraint=eastwest;whiteSpace=wrap;html=1;" vertex="1" parent="SeJOZOb3qlBdoNpVtxdW-64">
          <mxGeometry y="30" width="260" height="26" as="geometry" />
        </mxCell>
        <mxCell id="SeJOZOb3qlBdoNpVtxdW-66" value="- schema: String" style="text;strokeColor=none;fillColor=none;align=left;verticalAlign=top;spacingLeft=4;spacingRight=4;overflow=hidden;rotatable=0;points=[[0,0.5],[1,0.5]];portConstraint=eastwest;whiteSpace=wrap;html=1;" vertex="1" parent="SeJOZOb3qlBdoNpVtxdW-64">
          <mxGeometry y="56" width="260" height="26" as="geometry" />
        </mxCell>
        <mxCell id="SeJOZOb3qlBdoNpVtxdW-67" value="produtos: ArrayList &amp;lt;Produto&amp;gt;" style="text;strokeColor=none;fillColor=none;align=left;verticalAlign=top;spacingLeft=4;spacingRight=4;overflow=hidden;rotatable=0;points=[[0,0.5],[1,0.5]];portConstraint=eastwest;whiteSpace=wrap;html=1;" vertex="1" parent="SeJOZOb3qlBdoNpVtxdW-64">
          <mxGeometry y="82" width="260" height="26" as="geometry" />
        </mxCell>
        <mxCell id="SeJOZOb3qlBdoNpVtxdW-68" value="" style="line;strokeWidth=1;fillColor=none;align=left;verticalAlign=middle;spacingTop=-1;spacingLeft=3;spacingRight=3;rotatable=0;labelPosition=right;points=[];portConstraint=eastwest;strokeColor=inherit;" vertex="1" parent="SeJOZOb3qlBdoNpVtxdW-64">
          <mxGeometry y="108" width="260" height="8" as="geometry" />
        </mxCell>
        <mxCell id="SeJOZOb3qlBdoNpVtxdW-69" value="+ ListarProduto&amp;nbsp;(Conexao,String)" style="text;strokeColor=none;fillColor=none;align=left;verticalAlign=top;spacingLeft=4;spacingRight=4;overflow=hidden;rotatable=0;points=[[0,0.5],[1,0.5]];portConstraint=eastwest;whiteSpace=wrap;html=1;" vertex="1" parent="SeJOZOb3qlBdoNpVtxdW-64">
          <mxGeometry y="116" width="260" height="26" as="geometry" />
        </mxCell>
        <mxCell id="SeJOZOb3qlBdoNpVtxdW-70" value="+ adicionarProdutoLista (Produto)" style="text;strokeColor=none;fillColor=none;align=left;verticalAlign=top;spacingLeft=4;spacingRight=4;overflow=hidden;rotatable=0;points=[[0,0.5],[1,0.5]];portConstraint=eastwest;whiteSpace=wrap;html=1;" vertex="1" parent="SeJOZOb3qlBdoNpVtxdW-64">
          <mxGeometry y="142" width="260" height="26" as="geometry" />
        </mxCell>
        <mxCell id="SeJOZOb3qlBdoNpVtxdW-71" value="+ localizarProduto&amp;nbsp;(int): Produto" style="text;strokeColor=none;fillColor=none;align=left;verticalAlign=top;spacingLeft=4;spacingRight=4;overflow=hidden;rotatable=0;points=[[0,0.5],[1,0.5]];portConstraint=eastwest;whiteSpace=wrap;html=1;" vertex="1" parent="SeJOZOb3qlBdoNpVtxdW-64">
          <mxGeometry y="168" width="260" height="26" as="geometry" />
        </mxCell>
        <mxCell id="SeJOZOb3qlBdoNpVtxdW-72" value="- carregarListaProdutor&amp;nbsp;()" style="text;strokeColor=none;fillColor=none;align=left;verticalAlign=top;spacingLeft=4;spacingRight=4;overflow=hidden;rotatable=0;points=[[0,0.5],[1,0.5]];portConstraint=eastwest;whiteSpace=wrap;html=1;" vertex="1" parent="SeJOZOb3qlBdoNpVtxdW-64">
          <mxGeometry y="194" width="260" height="26" as="geometry" />
        </mxCell>
        <mxCell id="SeJOZOb3qlBdoNpVtxdW-73" value="+ imprimirProduto&amp;nbsp;()" style="text;strokeColor=none;fillColor=none;align=left;verticalAlign=top;spacingLeft=4;spacingRight=4;overflow=hidden;rotatable=0;points=[[0,0.5],[1,0.5]];portConstraint=eastwest;whiteSpace=wrap;html=1;" vertex="1" parent="SeJOZOb3qlBdoNpVtxdW-64">
          <mxGeometry y="220" width="260" height="26" as="geometry" />
        </mxCell>
        <mxCell id="SeJOZOb3qlBdoNpVtxdW-74" value="- dadosProduto (ResultSet): Produto" style="text;strokeColor=none;fillColor=none;align=left;verticalAlign=top;spacingLeft=4;spacingRight=4;overflow=hidden;rotatable=0;points=[[0,0.5],[1,0.5]];portConstraint=eastwest;whiteSpace=wrap;html=1;" vertex="1" parent="SeJOZOb3qlBdoNpVtxdW-64">
          <mxGeometry y="246" width="260" height="26" as="geometry" />
        </mxCell>
        <mxCell id="JdMa9KKZFcKlZK4XSn1P-6" value="Extends" style="endArrow=block;endSize=16;endFill=0;html=1;rounded=0;exitX=0.5;exitY=0;exitDx=0;exitDy=0;" edge="1" parent="1" source="XcWfCShOmDu8Nu97XLVq-6">
          <mxGeometry width="160" relative="1" as="geometry">
            <mxPoint x="130" y="-1337" as="sourcePoint" />
            <mxPoint x="130" y="-1427" as="targetPoint" />
          </mxGeometry>
        </mxCell>
        <mxCell id="9Cpz96ImffGfRP7pSJSO-7" value="" style="endArrow=diamondThin;endFill=1;endSize=24;html=1;rounded=0;entryX=1;entryY=0;entryDx=0;entryDy=0;exitX=0.002;exitY=0.971;exitDx=0;exitDy=0;exitPerimeter=0;" edge="1" parent="1" source="XcWfCShOmDu8Nu97XLVq-146" target="SeJOZOb3qlBdoNpVtxdW-8">
          <mxGeometry width="160" relative="1" as="geometry">
            <mxPoint x="410" y="-967" as="sourcePoint" />
            <mxPoint x="260" y="-1007" as="targetPoint" />
          </mxGeometry>
        </mxCell>
        <mxCell id="9Cpz96ImffGfRP7pSJSO-8" value="" style="endArrow=diamondThin;endFill=1;endSize=24;html=1;rounded=0;entryX=0.519;entryY=0.022;entryDx=0;entryDy=0;entryPerimeter=0;" edge="1" parent="1" source="XcWfCShOmDu8Nu97XLVq-146" target="XcWfCShOmDu8Nu97XLVq-242">
          <mxGeometry width="160" relative="1" as="geometry">
            <mxPoint x="558.77" y="-963.3359999999998" as="sourcePoint" />
            <mxPoint x="440" y="-907" as="targetPoint" />
          </mxGeometry>
        </mxCell>
        <mxCell id="2Zkdfe8Ym_yz3WXDsTYO-2" value="" style="endArrow=diamondThin;endFill=1;endSize=24;html=1;rounded=0;exitX=0;exitY=0.5;exitDx=0;exitDy=0;entryX=1;entryY=0.5;entryDx=0;entryDy=0;" edge="1" parent="1" source="XcWfCShOmDu8Nu97XLVq-52" target="XcWfCShOmDu8Nu97XLVq-150">
          <mxGeometry width="160" relative="1" as="geometry">
            <mxPoint x="1380" y="-1569.9999999999998" as="sourcePoint" />
            <mxPoint x="1540" y="-1569.9999999999998" as="targetPoint" />
          </mxGeometry>
        </mxCell>
        <mxCell id="9Cpz96ImffGfRP7pSJSO-10" value="" style="endArrow=diamondThin;endFill=1;endSize=24;html=1;rounded=0;exitX=0;exitY=0.5;exitDx=0;exitDy=0;entryX=0.997;entryY=0.853;entryDx=0;entryDy=0;entryPerimeter=0;" edge="1" parent="1" source="XcWfCShOmDu8Nu97XLVq-92" target="XcWfCShOmDu8Nu97XLVq-247">
          <mxGeometry width="160" relative="1" as="geometry">
            <mxPoint x="670" y="-620" as="sourcePoint" />
            <mxPoint x="830" y="-620" as="targetPoint" />
          </mxGeometry>
        </mxCell>
        <mxCell id="9Cpz96ImffGfRP7pSJSO-12" value="" style="endArrow=diamondThin;endFill=1;endSize=24;html=1;rounded=0;entryX=0;entryY=0.5;entryDx=0;entryDy=0;exitX=1;exitY=0.5;exitDx=0;exitDy=0;" edge="1" parent="1" source="XcWfCShOmDu8Nu97XLVq-31" target="XcWfCShOmDu8Nu97XLVq-135">
          <mxGeometry width="160" relative="1" as="geometry">
            <mxPoint x="260" y="-1127" as="sourcePoint" />
            <mxPoint x="410" y="-1134" as="targetPoint" />
          </mxGeometry>
        </mxCell>
        <mxCell id="9Cpz96ImffGfRP7pSJSO-15" value="" style="endArrow=diamondThin;endFill=1;endSize=24;html=1;rounded=0;exitX=0.5;exitY=0;exitDx=0;exitDy=0;entryX=0.498;entryY=1.041;entryDx=0;entryDy=0;entryPerimeter=0;" edge="1" parent="1" source="XcWfCShOmDu8Nu97XLVq-104" target="XcWfCShOmDu8Nu97XLVq-103">
          <mxGeometry width="160" relative="1" as="geometry">
            <mxPoint x="1000" y="-270" as="sourcePoint" />
            <mxPoint x="1160" y="-270" as="targetPoint" />
          </mxGeometry>
        </mxCell>
        <mxCell id="9Cpz96ImffGfRP7pSJSO-16" value="" style="endArrow=diamondThin;endFill=1;endSize=24;html=1;rounded=0;exitX=0.5;exitY=0;exitDx=0;exitDy=0;entryX=0.49;entryY=1.01;entryDx=0;entryDy=0;entryPerimeter=0;" edge="1" parent="1" source="XcWfCShOmDu8Nu97XLVq-91" target="XcWfCShOmDu8Nu97XLVq-131">
          <mxGeometry width="160" relative="1" as="geometry">
            <mxPoint x="870" y="-170" as="sourcePoint" />
            <mxPoint x="1030" y="-170" as="targetPoint" />
          </mxGeometry>
        </mxCell>
        <mxCell id="9Cpz96ImffGfRP7pSJSO-18" value="" style="endArrow=diamondThin;endFill=1;endSize=24;html=1;rounded=0;entryX=0;entryY=0;entryDx=0;entryDy=0;exitX=0.996;exitY=1.085;exitDx=0;exitDy=0;exitPerimeter=0;" edge="1" parent="1" source="XcWfCShOmDu8Nu97XLVq-163" target="SeJOZOb3qlBdoNpVtxdW-19">
          <mxGeometry width="160" relative="1" as="geometry">
            <mxPoint x="1920" y="-920" as="sourcePoint" />
            <mxPoint x="2080" y="-920" as="targetPoint" />
          </mxGeometry>
        </mxCell>
        <mxCell id="9Cpz96ImffGfRP7pSJSO-19" value="" style="endArrow=diamondThin;endFill=1;endSize=24;html=1;rounded=0;entryX=0.5;entryY=0;entryDx=0;entryDy=0;exitX=0.497;exitY=0.988;exitDx=0;exitDy=0;exitPerimeter=0;" edge="1" parent="1" source="XcWfCShOmDu8Nu97XLVq-163" target="XcWfCShOmDu8Nu97XLVq-248">
          <mxGeometry width="160" relative="1" as="geometry">
            <mxPoint x="1770" y="-930" as="sourcePoint" />
            <mxPoint x="1930" y="-930" as="targetPoint" />
          </mxGeometry>
        </mxCell>
        <mxCell id="9Cpz96ImffGfRP7pSJSO-20" value="" style="endArrow=diamondThin;endFill=1;endSize=24;html=1;rounded=0;exitX=1;exitY=0.5;exitDx=0;exitDy=0;entryX=0.011;entryY=0.982;entryDx=0;entryDy=0;entryPerimeter=0;" edge="1" parent="1" source="XcWfCShOmDu8Nu97XLVq-92" target="XcWfCShOmDu8Nu97XLVq-251">
          <mxGeometry width="160" relative="1" as="geometry">
            <mxPoint x="1440" y="-580" as="sourcePoint" />
            <mxPoint x="1720" y="-700" as="targetPoint" />
          </mxGeometry>
        </mxCell>
        <mxCell id="9Cpz96ImffGfRP7pSJSO-21" value="" style="endArrow=diamondThin;endFill=1;endSize=24;html=1;rounded=0;exitX=0.005;exitY=0.76;exitDx=0;exitDy=0;entryX=1;entryY=0.5;entryDx=0;entryDy=0;exitPerimeter=0;" edge="1" parent="1" source="XcWfCShOmDu8Nu97XLVq-89" target="XcWfCShOmDu8Nu97XLVq-218">
          <mxGeometry width="160" relative="1" as="geometry">
            <mxPoint x="2100" y="-340" as="sourcePoint" />
            <mxPoint x="2170" y="-500" as="targetPoint" />
          </mxGeometry>
        </mxCell>
        <mxCell id="9Cpz96ImffGfRP7pSJSO-22" value="" style="endArrow=diamondThin;endFill=1;endSize=24;html=1;rounded=0;exitX=1.008;exitY=1.051;exitDx=0;exitDy=0;entryX=0;entryY=0;entryDx=0;entryDy=0;exitPerimeter=0;" edge="1" parent="1" source="XcWfCShOmDu8Nu97XLVq-224" target="SeJOZOb3qlBdoNpVtxdW-64">
          <mxGeometry width="160" relative="1" as="geometry">
            <mxPoint x="2150" y="-140" as="sourcePoint" />
            <mxPoint x="2310" y="-140" as="targetPoint" />
          </mxGeometry>
        </mxCell>
        <mxCell id="9Cpz96ImffGfRP7pSJSO-23" value="" style="endArrow=diamondThin;endFill=1;endSize=24;html=1;rounded=0;entryX=1;entryY=0.5;entryDx=0;entryDy=0;exitX=0;exitY=0.5;exitDx=0;exitDy=0;" edge="1" parent="1" source="XcWfCShOmDu8Nu97XLVq-218" target="XcWfCShOmDu8Nu97XLVq-266">
          <mxGeometry width="160" relative="1" as="geometry">
            <mxPoint x="1820" y="-170" as="sourcePoint" />
            <mxPoint x="1980" y="-170" as="targetPoint" />
          </mxGeometry>
        </mxCell>
        <mxCell id="9Cpz96ImffGfRP7pSJSO-24" value="" style="endArrow=diamondThin;endFill=1;endSize=24;html=1;rounded=0;entryX=0;entryY=0.5;entryDx=0;entryDy=0;exitX=1;exitY=0.5;exitDx=0;exitDy=0;" edge="1" parent="1" source="XcWfCShOmDu8Nu97XLVq-100" target="XcWfCShOmDu8Nu97XLVq-265">
          <mxGeometry width="160" relative="1" as="geometry">
            <mxPoint x="1320" y="-250" as="sourcePoint" />
            <mxPoint x="1980" y="-170" as="targetPoint" />
          </mxGeometry>
        </mxCell>
        <mxCell id="lNeRgxJBqh8XG6W0KFFu-1" value="" style="endArrow=diamondThin;endFill=1;endSize=24;html=1;rounded=0;entryX=1;entryY=0.5;entryDx=0;entryDy=0;exitX=-0.007;exitY=0.269;exitDx=0;exitDy=0;exitPerimeter=0;" edge="1" parent="1" source="XcWfCShOmDu8Nu97XLVq-76" target="XcWfCShOmDu8Nu97XLVq-198">
          <mxGeometry width="160" relative="1" as="geometry">
            <mxPoint x="2260" y="650" as="sourcePoint" />
            <mxPoint x="2420" y="650" as="targetPoint" />
          </mxGeometry>
        </mxCell>
        <mxCell id="lNeRgxJBqh8XG6W0KFFu-3" value="" style="endArrow=diamondThin;endFill=1;endSize=24;html=1;rounded=0;exitX=1;exitY=0.5;exitDx=0;exitDy=0;entryX=0;entryY=0.5;entryDx=0;entryDy=0;" edge="1" parent="1" source="XcWfCShOmDu8Nu97XLVq-208" target="SeJOZOb3qlBdoNpVtxdW-54">
          <mxGeometry width="160" relative="1" as="geometry">
            <mxPoint x="1950" y="900" as="sourcePoint" />
            <mxPoint x="1990" y="790" as="targetPoint" />
          </mxGeometry>
        </mxCell>
        <mxCell id="lNeRgxJBqh8XG6W0KFFu-4" value="" style="endArrow=diamondThin;endFill=1;endSize=24;html=1;rounded=0;exitX=0.5;exitY=0;exitDx=0;exitDy=0;" edge="1" parent="1" source="XcWfCShOmDu8Nu97XLVq-194" target="XcWfCShOmDu8Nu97XLVq-263">
          <mxGeometry width="160" relative="1" as="geometry">
            <mxPoint x="1840" y="520" as="sourcePoint" />
            <mxPoint x="2000" y="520" as="targetPoint" />
          </mxGeometry>
        </mxCell>
        <mxCell id="9Cpz96ImffGfRP7pSJSO-26" value="" style="endArrow=diamondThin;endFill=1;endSize=24;html=1;rounded=0;exitX=0.5;exitY=0;exitDx=0;exitDy=0;entryX=0.494;entryY=1.213;entryDx=0;entryDy=0;entryPerimeter=0;" edge="1" parent="1" source="XcWfCShOmDu8Nu97XLVq-115" target="XcWfCShOmDu8Nu97XLVq-241">
          <mxGeometry width="160" relative="1" as="geometry">
            <mxPoint x="1040" y="-1300" as="sourcePoint" />
            <mxPoint x="1190" y="-1290" as="targetPoint" />
          </mxGeometry>
        </mxCell>
        <mxCell id="lNeRgxJBqh8XG6W0KFFu-6" value="" style="endArrow=diamondThin;endFill=1;endSize=24;html=1;rounded=0;exitX=0.5;exitY=0;exitDx=0;exitDy=0;" edge="1" parent="1" source="XcWfCShOmDu8Nu97XLVq-164" target="XcWfCShOmDu8Nu97XLVq-255">
          <mxGeometry width="160" relative="1" as="geometry">
            <mxPoint x="870" y="750" as="sourcePoint" />
            <mxPoint x="1030" y="750" as="targetPoint" />
          </mxGeometry>
        </mxCell>
        <mxCell id="lNeRgxJBqh8XG6W0KFFu-8" value="" style="endArrow=diamondThin;endFill=1;endSize=24;html=1;rounded=0;exitX=0.008;exitY=1.026;exitDx=0;exitDy=0;exitPerimeter=0;entryX=1;entryY=0;entryDx=0;entryDy=0;" edge="1" parent="1" source="XcWfCShOmDu8Nu97XLVq-178" target="SeJOZOb3qlBdoNpVtxdW-30">
          <mxGeometry width="160" relative="1" as="geometry">
            <mxPoint x="660" y="900" as="sourcePoint" />
            <mxPoint x="490" y="870" as="targetPoint" />
          </mxGeometry>
        </mxCell>
        <mxCell id="lNeRgxJBqh8XG6W0KFFu-9" value="" style="endArrow=diamondThin;endFill=1;endSize=24;html=1;rounded=0;exitX=1;exitY=0.5;exitDx=0;exitDy=0;entryX=0.5;entryY=0;entryDx=0;entryDy=0;" edge="1" parent="1" source="XcWfCShOmDu8Nu97XLVq-101" target="XcWfCShOmDu8Nu97XLVq-260">
          <mxGeometry width="160" relative="1" as="geometry">
            <mxPoint x="1040" y="160" as="sourcePoint" />
            <mxPoint x="1890" y="80" as="targetPoint" />
          </mxGeometry>
        </mxCell>
        <mxCell id="lNeRgxJBqh8XG6W0KFFu-10" value="" style="endArrow=diamondThin;endFill=1;endSize=24;html=1;rounded=0;exitX=0;exitY=0.5;exitDx=0;exitDy=0;entryX=0.5;entryY=0;entryDx=0;entryDy=0;" edge="1" parent="1" source="XcWfCShOmDu8Nu97XLVq-101" target="XcWfCShOmDu8Nu97XLVq-252">
          <mxGeometry width="160" relative="1" as="geometry">
            <mxPoint x="620" y="60" as="sourcePoint" />
            <mxPoint x="1030" y="240" as="targetPoint" />
          </mxGeometry>
        </mxCell>
        <mxCell id="2Zkdfe8Ym_yz3WXDsTYO-33" value="" style="endArrow=diamondThin;endFill=1;endSize=24;html=1;rounded=0;entryX=0;entryY=0.5;entryDx=0;entryDy=0;exitX=1;exitY=0.5;exitDx=0;exitDy=0;" edge="1" parent="1" source="XcWfCShOmDu8Nu97XLVq-187" target="XcWfCShOmDu8Nu97XLVq-258">
          <mxGeometry width="160" relative="1" as="geometry">
            <mxPoint x="610" y="100" as="sourcePoint" />
            <mxPoint x="540" y="180" as="targetPoint" />
          </mxGeometry>
        </mxCell>
        <mxCell id="9Cpz96ImffGfRP7pSJSO-28" value="" style="endArrow=diamondThin;endFill=1;endSize=24;html=1;rounded=0;entryX=0;entryY=0.5;entryDx=0;entryDy=0;exitX=1;exitY=0.5;exitDx=0;exitDy=0;" edge="1" parent="1" source="XcWfCShOmDu8Nu97XLVq-66" target="XcWfCShOmDu8Nu97XLVq-186">
          <mxGeometry width="160" relative="1" as="geometry">
            <mxPoint x="360" y="-90" as="sourcePoint" />
            <mxPoint x="210" y="522.44" as="targetPoint" />
          </mxGeometry>
        </mxCell>
        <mxCell id="lNeRgxJBqh8XG6W0KFFu-11" value="" style="endArrow=diamondThin;endFill=1;endSize=24;html=1;rounded=0;exitX=1;exitY=0.5;exitDx=0;exitDy=0;entryX=0;entryY=0.5;entryDx=0;entryDy=0;" edge="1" parent="1" source="XcWfCShOmDu8Nu97XLVq-58" target="XcWfCShOmDu8Nu97XLVq-171">
          <mxGeometry width="160" relative="1" as="geometry">
            <mxPoint x="570" y="1020" as="sourcePoint" />
            <mxPoint x="700" y="700" as="targetPoint" />
          </mxGeometry>
        </mxCell>
        <mxCell id="9Cpz96ImffGfRP7pSJSO-29" value="" style="endArrow=diamondThin;endFill=1;endSize=24;html=1;rounded=0;entryX=1;entryY=0;entryDx=0;entryDy=0;exitX=0;exitY=0.5;exitDx=0;exitDy=0;" edge="1" parent="1" source="XcWfCShOmDu8Nu97XLVq-193" target="SeJOZOb3qlBdoNpVtxdW-41">
          <mxGeometry width="160" relative="1" as="geometry">
            <mxPoint x="380" y="20" as="sourcePoint" />
            <mxPoint x="440" y="602.44" as="targetPoint" />
          </mxGeometry>
        </mxCell>
        <mxCell id="lNeRgxJBqh8XG6W0KFFu-15" value="" style="endArrow=diamondThin;endFill=1;endSize=24;html=1;rounded=0;entryX=1.006;entryY=-0.103;entryDx=0;entryDy=0;exitX=0;exitY=0.5;exitDx=0;exitDy=0;entryPerimeter=0;" edge="1" parent="1" source="XcWfCShOmDu8Nu97XLVq-100" target="XcWfCShOmDu8Nu97XLVq-258">
          <mxGeometry width="160" relative="1" as="geometry">
            <mxPoint x="250" y="-200" as="sourcePoint" />
            <mxPoint x="410" y="-200" as="targetPoint" />
          </mxGeometry>
        </mxCell>
        <mxCell id="lNeRgxJBqh8XG6W0KFFu-17" value="" style="endArrow=diamondThin;endFill=1;endSize=24;html=1;rounded=0;entryX=0.5;entryY=0;entryDx=0;entryDy=0;" edge="1" parent="1" source="XcWfCShOmDu8Nu97XLVq-82" target="SeJOZOb3qlBdoNpVtxdW-53">
          <mxGeometry width="160" relative="1" as="geometry">
            <mxPoint x="1930" y="840" as="sourcePoint" />
            <mxPoint x="2090" y="840" as="targetPoint" />
          </mxGeometry>
        </mxCell>
        <mxCell id="lNeRgxJBqh8XG6W0KFFu-18" value="" style="endArrow=diamondThin;endFill=1;endSize=24;html=1;rounded=0;exitX=0.499;exitY=0.921;exitDx=0;exitDy=0;entryX=0.533;entryY=0.005;entryDx=0;entryDy=0;exitPerimeter=0;entryPerimeter=0;" edge="1" parent="1" source="XcWfCShOmDu8Nu97XLVq-90" target="SeJOZOb3qlBdoNpVtxdW-64">
          <mxGeometry width="160" relative="1" as="geometry">
            <mxPoint x="2196" y="-332" as="sourcePoint" />
            <mxPoint x="2080" y="-331" as="targetPoint" />
          </mxGeometry>
        </mxCell>
        <mxCell id="9Cpz96ImffGfRP7pSJSO-30" value="" style="endArrow=diamondThin;endFill=1;endSize=24;html=1;rounded=0;exitX=0.472;exitY=1.137;exitDx=0;exitDy=0;exitPerimeter=0;entryX=0.5;entryY=0;entryDx=0;entryDy=0;" edge="1" parent="1" source="XcWfCShOmDu8Nu97XLVq-36" target="SeJOZOb3qlBdoNpVtxdW-8">
          <mxGeometry width="160" relative="1" as="geometry">
            <mxPoint x="300" y="-760" as="sourcePoint" />
            <mxPoint x="460" y="-760" as="targetPoint" />
          </mxGeometry>
        </mxCell>
        <mxCell id="lNeRgxJBqh8XG6W0KFFu-19" value="" style="endArrow=diamondThin;endFill=1;endSize=24;html=1;rounded=0;exitX=0.492;exitY=0.94;exitDx=0;exitDy=0;entryX=0.5;entryY=0;entryDx=0;entryDy=0;exitPerimeter=0;" edge="1" parent="1" source="XcWfCShOmDu8Nu97XLVq-60" target="SeJOZOb3qlBdoNpVtxdW-30">
          <mxGeometry width="160" relative="1" as="geometry">
            <mxPoint x="170" y="850" as="sourcePoint" />
            <mxPoint x="330" y="860" as="targetPoint" />
          </mxGeometry>
        </mxCell>
        <mxCell id="lNeRgxJBqh8XG6W0KFFu-20" value="" style="endArrow=diamondThin;endFill=1;endSize=24;html=1;rounded=0;entryX=0.5;entryY=0;entryDx=0;entryDy=0;exitX=0.491;exitY=1.087;exitDx=0;exitDy=0;exitPerimeter=0;" edge="1" parent="1" source="XcWfCShOmDu8Nu97XLVq-53" target="SeJOZOb3qlBdoNpVtxdW-19">
          <mxGeometry width="160" relative="1" as="geometry">
            <mxPoint x="2200" y="-990" as="sourcePoint" />
            <mxPoint x="2360" y="-990" as="targetPoint" />
          </mxGeometry>
        </mxCell>
        <mxCell id="lNeRgxJBqh8XG6W0KFFu-21" value="" style="endArrow=diamondThin;endFill=1;endSize=24;html=1;rounded=0;entryX=0.5;entryY=0;entryDx=0;entryDy=0;exitX=0.455;exitY=1.063;exitDx=0;exitDy=0;exitPerimeter=0;" edge="1" parent="1" source="XcWfCShOmDu8Nu97XLVq-74" target="SeJOZOb3qlBdoNpVtxdW-41">
          <mxGeometry width="160" relative="1" as="geometry">
            <mxPoint x="100" y="-80" as="sourcePoint" />
            <mxPoint x="260" y="-80" as="targetPoint" />
          </mxGeometry>
        </mxCell>
      </root>
    </mxGraphModel>
  </diagram>
</mxfile>
